<svg width="375" height="812" viewBox="0 0 375 812" fill="none" xmlns="http://www.w3.org/2000/svg">
<g clip-path="url(#clip0)">
<rect width="375" height="812" fill="white"/>
<path d="M46.9297 149.754C47.0376 151.921 48.8555 153.299 51.603 153.299C54.5083 153.299 56.3096 151.854 56.3096 149.53C56.3096 147.712 55.2886 146.7 52.8564 146.144L51.4785 145.828C49.9927 145.479 49.3867 145.006 49.3867 144.185C49.3867 143.147 50.2998 142.466 51.6777 142.466C52.9893 142.466 53.9189 143.139 54.0684 144.209H56.1187C56.019 142.159 54.2012 140.723 51.686 140.723C49.0049 140.723 47.2285 142.167 47.2285 144.326C47.2285 146.102 48.2495 147.173 50.4243 147.671L51.9766 148.028C53.5122 148.385 54.168 148.916 54.168 149.788C54.168 150.809 53.147 151.547 51.7358 151.547C50.2168 151.547 49.1543 150.85 49.0215 149.754H46.9297ZM64.4194 150.518C64.1206 151.199 63.415 151.581 62.394 151.581C61.041 151.581 60.1694 150.618 60.1196 149.082V148.974H66.4614V148.318C66.4614 145.471 64.9092 143.753 62.3193 143.753C59.688 143.753 58.0527 145.587 58.0527 148.501C58.0527 151.406 59.6631 153.183 62.3359 153.183C64.4775 153.183 65.9966 152.153 66.3701 150.518H64.4194ZM62.311 145.355C63.5479 145.355 64.3613 146.227 64.4028 147.604H60.1279C60.2192 146.243 61.0825 145.355 62.311 145.355ZM68.6113 153H70.6699V140.416H68.6113V153ZM79.1948 150.518C78.896 151.199 78.1904 151.581 77.1694 151.581C75.8164 151.581 74.9448 150.618 74.895 149.082V148.974H81.2368V148.318C81.2368 145.471 79.6846 143.753 77.0947 143.753C74.4634 143.753 72.8281 145.587 72.8281 148.501C72.8281 151.406 74.4385 153.183 77.1113 153.183C79.2529 153.183 80.772 152.153 81.1455 150.518H79.1948ZM77.0864 145.355C78.3232 145.355 79.1367 146.227 79.1782 147.604H74.9033C74.9946 146.243 75.8579 145.355 77.0864 145.355ZM91.1479 146.957C90.9321 145.081 89.521 143.753 87.1885 143.753C84.4575 143.753 82.8555 145.504 82.8555 148.443C82.8555 151.415 84.4658 153.183 87.1968 153.183C89.4961 153.183 90.9238 151.904 91.1479 150.028H89.189C88.9731 150.983 88.2593 151.489 87.1885 151.489C85.7856 151.489 84.939 150.369 84.939 148.443C84.939 146.55 85.7773 145.438 87.1885 145.438C88.3174 145.438 88.998 146.077 89.189 146.957H91.1479ZM93.8872 141.703V143.985H92.4512V145.587H93.8872V150.593C93.8872 152.344 94.7173 153.042 96.8008 153.042C97.1992 153.042 97.5811 153.008 97.8799 152.95V151.373C97.6309 151.398 97.4731 151.415 97.1826 151.415C96.3193 151.415 95.9375 151.008 95.9375 150.103V145.587H97.8799V143.985H95.9375V141.703H93.8872ZM105.126 141.703V143.985H103.69V145.587H105.126V150.593C105.126 152.344 105.957 153.042 108.04 153.042C108.438 153.042 108.82 153.008 109.119 152.95V151.373C108.87 151.398 108.712 151.415 108.422 151.415C107.559 151.415 107.177 151.008 107.177 150.103V145.587H109.119V143.985H107.177V141.703H105.126ZM111.261 153H113.319V147.729C113.319 146.401 114.075 145.513 115.428 145.513C116.623 145.513 117.254 146.227 117.254 147.629V153H119.312V147.148C119.312 144.99 118.134 143.761 116.191 143.761C114.838 143.761 113.867 144.375 113.436 145.396H113.286V140.416H111.261V153ZM127.671 150.518C127.373 151.199 126.667 151.581 125.646 151.581C124.293 151.581 123.421 150.618 123.372 149.082V148.974H129.713V148.318C129.713 145.471 128.161 143.753 125.571 143.753C122.94 143.753 121.305 145.587 121.305 148.501C121.305 151.406 122.915 153.183 125.588 153.183C127.729 153.183 129.249 152.153 129.622 150.518H127.671ZM125.563 145.355C126.8 145.355 127.613 146.227 127.655 147.604H123.38C123.471 146.243 124.334 145.355 125.563 145.355ZM141.359 153.149C143.65 153.149 145.086 151.348 145.086 148.468C145.086 145.571 143.659 143.778 141.359 143.778C140.114 143.778 139.068 144.384 138.595 145.372H138.454V140.416H136.396V153H138.379V151.564H138.521C139.035 152.56 140.089 153.149 141.359 153.149ZM140.712 145.496C142.115 145.496 142.97 146.617 142.97 148.468C142.97 150.319 142.123 151.439 140.712 151.439C139.301 151.439 138.421 150.302 138.421 148.468C138.421 146.633 139.309 145.496 140.712 145.496ZM153.072 150.518C152.773 151.199 152.067 151.581 151.046 151.581C149.693 151.581 148.822 150.618 148.772 149.082V148.974H155.114V148.318C155.114 145.471 153.562 143.753 150.972 143.753C148.34 143.753 146.705 145.587 146.705 148.501C146.705 151.406 148.315 153.183 150.988 153.183C153.13 153.183 154.649 152.153 155.022 150.518H153.072ZM150.963 145.355C152.2 145.355 153.014 146.227 153.055 147.604H148.78C148.872 146.243 149.735 145.355 150.963 145.355ZM156.973 146.517C156.973 147.878 157.795 148.675 159.538 149.074L161.148 149.447C162.012 149.646 162.402 149.979 162.402 150.493C162.402 151.182 161.68 151.655 160.642 151.655C159.613 151.655 158.974 151.24 158.774 150.568H156.741C156.898 152.203 158.326 153.183 160.592 153.183C162.858 153.183 164.46 152.029 164.46 150.294C164.46 148.958 163.655 148.219 161.92 147.82L160.318 147.463C159.405 147.248 158.974 146.924 158.974 146.409C158.974 145.737 159.679 145.28 160.617 145.28C161.58 145.28 162.186 145.695 162.335 146.334H164.27C164.12 144.699 162.767 143.753 160.609 143.753C158.467 143.753 156.973 144.89 156.973 146.517ZM167.133 141.703V143.985H165.697V145.587H167.133V150.593C167.133 152.344 167.963 153.042 170.047 153.042C170.445 153.042 170.827 153.008 171.126 152.95V151.373C170.877 151.398 170.719 151.415 170.429 151.415C169.565 151.415 169.184 151.008 169.184 150.103V145.587H171.126V143.985H169.184V141.703H167.133ZM178.373 141.703V143.985H176.937V145.587H178.373V150.593C178.373 152.344 179.203 153.042 181.286 153.042C181.685 153.042 182.066 153.008 182.365 152.95V151.373C182.116 151.398 181.958 151.415 181.668 151.415C180.805 151.415 180.423 151.008 180.423 150.103V145.587H182.365V143.985H180.423V141.703H178.373ZM184.424 153H186.482V147.729C186.482 146.451 187.412 145.621 188.749 145.621C189.097 145.621 189.645 145.679 189.803 145.737V143.861C189.612 143.811 189.247 143.778 188.948 143.778C187.777 143.778 186.798 144.442 186.549 145.338H186.408V143.927H184.424V153ZM197.182 150.518C196.883 151.199 196.178 151.581 195.157 151.581C193.804 151.581 192.932 150.618 192.882 149.082V148.974H199.224V148.318C199.224 145.471 197.672 143.753 195.082 143.753C192.451 143.753 190.815 145.587 190.815 148.501C190.815 151.406 192.426 153.183 195.099 153.183C197.24 153.183 198.759 152.153 199.133 150.518H197.182ZM195.074 145.355C196.311 145.355 197.124 146.227 197.166 147.604H192.891C192.982 146.243 193.845 145.355 195.074 145.355ZM203.79 153.149C204.977 153.149 205.973 152.635 206.479 151.755H206.62V153H208.604V146.799C208.604 144.882 207.292 143.753 204.96 143.753C202.802 143.753 201.299 144.766 201.133 146.351H203.076C203.267 145.729 203.914 145.388 204.86 145.388C205.973 145.388 206.57 145.895 206.57 146.799V147.58L204.229 147.721C202.021 147.845 200.785 148.8 200.785 150.427C200.785 152.087 202.038 153.149 203.79 153.149ZM204.396 151.564C203.482 151.564 202.827 151.107 202.827 150.327C202.827 149.572 203.366 149.148 204.52 149.074L206.57 148.933V149.671C206.57 150.75 205.641 151.564 204.396 151.564ZM211.742 141.703V143.985H210.306V145.587H211.742V150.593C211.742 152.344 212.572 153.042 214.655 153.042C215.054 153.042 215.436 153.008 215.734 152.95V151.373C215.485 151.398 215.328 151.415 215.037 151.415C214.174 151.415 213.792 151.008 213.792 150.103V145.587H215.734V143.985H213.792V141.703H211.742ZM217.793 153H219.852V147.48C219.852 146.351 220.607 145.496 221.628 145.496C222.641 145.496 223.271 146.11 223.271 147.115V153H225.272V147.331C225.272 146.293 225.978 145.496 227.048 145.496C228.152 145.496 228.708 146.085 228.708 147.264V153H230.759V146.758C230.759 144.874 229.663 143.753 227.845 143.753C226.583 143.753 225.538 144.4 225.089 145.388H224.948C224.566 144.384 223.695 143.753 222.441 143.753C221.238 143.753 220.308 144.367 219.918 145.388H219.777V143.927H217.793V153ZM239.118 150.518C238.819 151.199 238.113 151.581 237.092 151.581C235.739 151.581 234.868 150.618 234.818 149.082V148.974H241.16V148.318C241.16 145.471 239.607 143.753 237.018 143.753C234.386 143.753 232.751 145.587 232.751 148.501C232.751 151.406 234.361 153.183 237.034 153.183C239.176 153.183 240.695 152.153 241.068 150.518H239.118ZM237.009 145.355C238.246 145.355 239.06 146.227 239.101 147.604H234.826C234.917 146.243 235.781 145.355 237.009 145.355ZM243.227 153H245.285V147.712C245.285 146.351 246.057 145.496 247.286 145.496C248.539 145.496 249.12 146.202 249.12 147.613V153H251.179V147.131C251.179 144.973 250.075 143.753 248.049 143.753C246.696 143.753 245.783 144.367 245.352 145.38H245.21V143.927H243.227V153ZM254.275 141.703V143.985H252.839V145.587H254.275V150.593C254.275 152.344 255.105 153.042 257.188 153.042C257.587 153.042 257.969 153.008 258.268 152.95V151.373C258.019 151.398 257.861 151.415 257.57 151.415C256.707 151.415 256.325 151.008 256.325 150.103V145.587H258.268V143.985H256.325V141.703H254.275ZM51.1797 173.183C53.894 173.183 55.5459 171.406 55.5459 168.459C55.5459 165.529 53.8857 163.753 51.1797 163.753C48.4819 163.753 46.8135 165.538 46.8135 168.459C46.8135 171.406 48.457 173.183 51.1797 173.183ZM51.1797 171.498C49.7437 171.498 48.9219 170.385 48.9219 168.468C48.9219 166.55 49.7437 165.438 51.1797 165.438C52.6074 165.438 53.4292 166.55 53.4292 168.468C53.4292 170.385 52.6157 171.498 51.1797 171.498ZM62.5684 163.778C61.3232 163.778 60.269 164.4 59.7461 165.43H59.605V163.927H57.6211V176.013H59.6797V171.622H59.8208C60.2856 172.585 61.29 173.149 62.5933 173.149C64.8843 173.149 66.312 171.348 66.312 168.468C66.312 165.562 64.8677 163.778 62.5684 163.778ZM61.9209 171.439C60.5181 171.439 59.6465 170.302 59.6382 168.468C59.6465 166.633 60.5264 165.496 61.9292 165.496C63.3403 165.496 64.1953 166.608 64.1953 168.468C64.1953 170.327 63.3486 171.439 61.9209 171.439ZM69.0347 161.703V163.985H67.5986V165.587H69.0347V170.593C69.0347 172.344 69.8647 173.042 71.9482 173.042C72.3467 173.042 72.7285 173.008 73.0273 172.95V171.373C72.7783 171.398 72.6206 171.415 72.3301 171.415C71.4668 171.415 71.085 171.008 71.085 170.103V165.587H73.0273V163.985H71.085V161.703H69.0347ZM76.1318 162.408C76.8125 162.408 77.3687 161.869 77.3687 161.188C77.3687 160.516 76.8125 159.968 76.1318 159.968C75.4595 159.968 74.9033 160.516 74.9033 161.188C74.9033 161.869 75.4595 162.408 76.1318 162.408ZM75.1108 173H77.1611V163.927H75.1108V173ZM83.6357 173.183C86.3501 173.183 88.002 171.406 88.002 168.459C88.002 165.529 86.3418 163.753 83.6357 163.753C80.938 163.753 79.2695 165.538 79.2695 168.459C79.2695 171.406 80.9131 173.183 83.6357 173.183ZM83.6357 171.498C82.1997 171.498 81.3779 170.385 81.3779 168.468C81.3779 166.55 82.1997 165.438 83.6357 165.438C85.0635 165.438 85.8853 166.55 85.8853 168.468C85.8853 170.385 85.0718 171.498 83.6357 171.498ZM90.0771 173H92.1357V167.712C92.1357 166.351 92.9077 165.496 94.1362 165.496C95.3896 165.496 95.9707 166.202 95.9707 167.613V173H98.0293V167.131C98.0293 164.973 96.9253 163.753 94.8999 163.753C93.5469 163.753 92.6338 164.367 92.2021 165.38H92.061V163.927H90.0771V173ZM105.666 173H107.716V165.587H109.667V163.985H107.691V163.147C107.691 162.284 108.073 161.852 109.044 161.852C109.335 161.852 109.584 161.877 109.75 161.902V160.416C109.418 160.358 109.044 160.333 108.604 160.333C106.587 160.333 105.666 161.221 105.666 163.031V163.985H104.18V165.587H105.666V173ZM115.245 173.183C117.959 173.183 119.611 171.406 119.611 168.459C119.611 165.529 117.951 163.753 115.245 163.753C112.547 163.753 110.879 165.538 110.879 168.459C110.879 171.406 112.522 173.183 115.245 173.183ZM115.245 171.498C113.809 171.498 112.987 170.385 112.987 168.468C112.987 166.55 113.809 165.438 115.245 165.438C116.673 165.438 117.495 166.55 117.495 168.468C117.495 170.385 116.681 171.498 115.245 171.498ZM121.687 173H123.745V167.729C123.745 166.451 124.675 165.621 126.011 165.621C126.36 165.621 126.908 165.679 127.065 165.737V163.861C126.875 163.811 126.509 163.778 126.21 163.778C125.04 163.778 124.061 164.442 123.812 165.338H123.67V163.927H121.687V173ZM134.287 176.287C136.321 176.287 137.292 175.548 138.064 173.315L141.343 163.927H139.168L137.051 171.049H136.91L134.785 163.927H132.527L135.773 173.033L135.665 173.457C135.399 174.312 134.91 174.644 134.038 174.644C133.897 174.644 133.59 174.635 133.474 174.619V176.254C133.606 176.279 134.163 176.287 134.287 176.287ZM146.672 173.183C149.386 173.183 151.038 171.406 151.038 168.459C151.038 165.529 149.378 163.753 146.672 163.753C143.974 163.753 142.306 165.538 142.306 168.459C142.306 171.406 143.949 173.183 146.672 173.183ZM146.672 171.498C145.236 171.498 144.414 170.385 144.414 168.468C144.414 166.55 145.236 165.438 146.672 165.438C148.1 165.438 148.921 166.55 148.921 168.468C148.921 170.385 148.108 171.498 146.672 171.498ZM161.016 163.927H158.957V169.215C158.957 170.584 158.227 171.415 156.89 171.415C155.662 171.415 155.089 170.734 155.089 169.323V163.927H153.03V169.821C153.03 171.946 154.192 173.183 156.176 173.183C157.562 173.183 158.451 172.593 158.891 171.556H159.032V173H161.016V163.927ZM165.075 173.166C165.863 173.166 166.403 172.61 166.403 171.871C166.403 171.141 165.863 170.584 165.075 170.584C164.294 170.584 163.747 171.141 163.747 171.871C163.747 172.61 164.294 173.166 165.075 173.166Z" fill="black"/>
<g filter="url(#filter0_d)">
<rect x="44" y="343" width="125" height="90" rx="10" fill="#0064BE"/>
</g>
<g filter="url(#filter1_d)">
<rect x="44" y="468" width="125" height="90" rx="10" fill="#0064BE"/>
</g>
<g filter="url(#filter2_d)">
<rect x="219" y="343" width="125" height="90" rx="10" fill="#0064BE"/>
<rect x="219" y="343" width="125" height="90" rx="10" stroke="#B71C1C" stroke-width="2"/>
</g>
<g filter="url(#filter3_d)">
<rect x="219" y="468" width="125" height="90" rx="10" fill="#0064BE"/>
</g>
<g filter="url(#filter4_d)">
<rect x="219" y="215" width="125" height="90" rx="10" fill="#0064BE"/>
</g>
<path d="M250.161 285V277.25H248.78V280.472H245.01V277.25H243.624V285H245.01V281.638H248.78V285H250.161ZM254.474 285.118C256.23 285.118 257.299 283.969 257.299 282.062C257.299 280.166 256.225 279.017 254.474 279.017C252.728 279.017 251.648 280.171 251.648 282.062C251.648 283.969 252.712 285.118 254.474 285.118ZM254.474 284.028C253.544 284.028 253.013 283.308 253.013 282.067C253.013 280.827 253.544 280.107 254.474 280.107C255.397 280.107 255.929 280.827 255.929 282.067C255.929 283.308 255.403 284.028 254.474 284.028ZM258.507 280.805C258.507 281.686 259.039 282.202 260.167 282.459L261.209 282.701C261.768 282.83 262.02 283.045 262.02 283.378C262.02 283.824 261.553 284.13 260.881 284.13C260.215 284.13 259.802 283.861 259.673 283.426H258.357C258.459 284.484 259.383 285.118 260.849 285.118C262.315 285.118 263.352 284.372 263.352 283.249C263.352 282.384 262.831 281.906 261.708 281.648L260.672 281.417C260.081 281.278 259.802 281.068 259.802 280.735C259.802 280.3 260.258 280.005 260.865 280.005C261.488 280.005 261.88 280.273 261.977 280.687H263.229C263.132 279.629 262.256 279.017 260.86 279.017C259.474 279.017 258.507 279.752 258.507 280.805ZM267.901 279.033C267.096 279.033 266.414 279.436 266.075 280.102H265.984V279.129H264.7V286.95H266.032V284.108H266.124C266.424 284.731 267.074 285.097 267.917 285.097C269.4 285.097 270.324 283.931 270.324 282.067C270.324 280.188 269.389 279.033 267.901 279.033ZM267.482 283.99C266.575 283.99 266.011 283.254 266.005 282.067C266.011 280.88 266.58 280.145 267.488 280.145C268.401 280.145 268.954 280.864 268.954 282.067C268.954 283.271 268.406 283.99 267.482 283.99ZM272.338 278.146C272.778 278.146 273.138 277.797 273.138 277.357C273.138 276.922 272.778 276.567 272.338 276.567C271.903 276.567 271.543 276.922 271.543 277.357C271.543 277.797 271.903 278.146 272.338 278.146ZM271.677 285H273.004V279.129H271.677V285ZM275.083 277.69V279.167H274.153V280.204H275.083V283.442C275.083 284.576 275.62 285.027 276.968 285.027C277.226 285.027 277.473 285.005 277.666 284.968V283.947C277.505 283.963 277.403 283.974 277.215 283.974C276.656 283.974 276.409 283.711 276.409 283.125V280.204H277.666V279.167H276.409V277.69H275.083ZM280.615 285.097C281.383 285.097 282.027 284.764 282.355 284.194H282.446V285H283.73V280.988C283.73 279.747 282.881 279.017 281.372 279.017C279.976 279.017 279.003 279.672 278.896 280.698H280.153C280.276 280.295 280.695 280.075 281.308 280.075C282.027 280.075 282.414 280.402 282.414 280.988V281.493L280.899 281.584C279.471 281.665 278.67 282.282 278.67 283.335C278.67 284.409 279.481 285.097 280.615 285.097ZM281.007 284.071C280.416 284.071 279.992 283.775 279.992 283.271C279.992 282.782 280.341 282.508 281.087 282.459L282.414 282.368V282.846C282.414 283.544 281.812 284.071 281.007 284.071ZM285.39 285H286.722V276.857H285.39V285ZM288.274 280.805C288.274 281.686 288.806 282.202 289.934 282.459L290.976 282.701C291.534 282.83 291.787 283.045 291.787 283.378C291.787 283.824 291.319 284.13 290.648 284.13C289.982 284.13 289.568 283.861 289.439 283.426H288.124C288.226 284.484 289.149 285.118 290.616 285.118C292.082 285.118 293.119 284.372 293.119 283.249C293.119 282.384 292.598 281.906 291.475 281.648L290.438 281.417C289.848 281.278 289.568 281.068 289.568 280.735C289.568 280.3 290.025 280.005 290.632 280.005C291.255 280.005 291.647 280.273 291.744 280.687H292.995C292.898 279.629 292.023 279.017 290.626 279.017C289.241 279.017 288.274 279.752 288.274 280.805ZM298.876 285V279.661H298.968L302.771 285H303.968V277.25H302.636V282.588H302.545L298.742 277.25H297.539V285H298.876ZM309.576 283.394C309.382 283.834 308.926 284.082 308.265 284.082C307.39 284.082 306.826 283.458 306.793 282.465V282.395H310.897V281.971C310.897 280.128 309.893 279.017 308.217 279.017C306.514 279.017 305.456 280.204 305.456 282.089C305.456 283.969 306.498 285.118 308.228 285.118C309.613 285.118 310.596 284.452 310.838 283.394H309.576ZM308.211 280.053C309.012 280.053 309.538 280.617 309.565 281.509H306.799C306.858 280.628 307.417 280.053 308.211 280.053ZM313.851 285.097C314.619 285.097 315.264 284.764 315.591 284.194H315.683V285H316.966V280.988C316.966 279.747 316.118 279.017 314.608 279.017C313.212 279.017 312.24 279.672 312.132 280.698H313.389C313.513 280.295 313.932 280.075 314.544 280.075C315.264 280.075 315.65 280.402 315.65 280.988V281.493L314.136 281.584C312.707 281.665 311.907 282.282 311.907 283.335C311.907 284.409 312.718 285.097 313.851 285.097ZM314.243 284.071C313.652 284.071 313.228 283.775 313.228 283.271C313.228 282.782 313.577 282.508 314.324 282.459L315.65 282.368V282.846C315.65 283.544 315.049 284.071 314.243 284.071ZM318.572 285H319.904V281.589C319.904 280.762 320.506 280.225 321.371 280.225C321.596 280.225 321.951 280.263 322.053 280.3V279.086C321.929 279.054 321.693 279.033 321.5 279.033C320.742 279.033 320.108 279.462 319.947 280.042H319.856V279.129H318.572V285ZM283.257 298V290.25H281.635L279.304 296.002H279.208L276.876 290.25H275.254V298H276.543V292.505H276.619L278.762 297.758H279.75L281.893 292.505H281.968V298H283.257ZM288.859 296.394C288.666 296.834 288.209 297.082 287.549 297.082C286.673 297.082 286.109 296.458 286.077 295.465V295.395H290.181V294.971C290.181 293.128 289.176 292.017 287.5 292.017C285.798 292.017 284.74 293.204 284.74 295.089C284.74 296.969 285.782 298.118 287.511 298.118C288.897 298.118 289.88 297.452 290.122 296.394H288.859ZM287.495 293.053C288.295 293.053 288.822 293.617 288.849 294.509H286.083C286.142 293.628 286.7 293.053 287.495 293.053Z" fill="#F2F2F2"/>
<path d="M82.7275 418V411.415H85.1177V410.25H78.957V411.415H81.3418V418H82.7275ZM89.2158 416.394C89.0225 416.834 88.5659 417.082 87.9053 417.082C87.0298 417.082 86.4658 416.458 86.4336 415.465V415.395H90.5371V414.971C90.5371 413.128 89.5327 412.017 87.8569 412.017C86.1543 412.017 85.0962 413.204 85.0962 415.089C85.0962 416.969 86.1382 418.118 87.8677 418.118C89.2534 418.118 90.2363 417.452 90.478 416.394H89.2158ZM87.8516 413.053C88.6519 413.053 89.1782 413.617 89.2051 414.509H86.439C86.498 413.628 87.0566 413.053 87.8516 413.053ZM91.9282 418H93.2603V409.857H91.9282V418ZM98.7764 416.394C98.583 416.834 98.1265 417.082 97.4658 417.082C96.5903 417.082 96.0264 416.458 95.9941 415.465V415.395H100.098V414.971C100.098 413.128 99.0933 412.017 97.4175 412.017C95.7148 412.017 94.6567 413.204 94.6567 415.089C94.6567 416.969 95.6987 418.118 97.4282 418.118C98.814 418.118 99.7969 417.452 100.039 416.394H98.7764ZM97.4121 413.053C98.2124 413.053 98.7388 413.617 98.7656 414.509H95.9995C96.0586 413.628 96.6172 413.053 97.4121 413.053ZM101.489 418H102.821V414.589C102.821 413.73 103.31 413.155 104.185 413.155C104.958 413.155 105.367 413.617 105.367 414.525V418H106.699V414.213C106.699 412.817 105.936 412.022 104.679 412.022C103.804 412.022 103.175 412.419 102.896 413.08H102.799V409.857H101.489V418ZM112.107 416.394C111.914 416.834 111.458 417.082 110.797 417.082C109.921 417.082 109.357 416.458 109.325 415.465V415.395H113.429V414.971C113.429 413.128 112.424 412.017 110.749 412.017C109.046 412.017 107.988 413.204 107.988 415.089C107.988 416.969 109.03 418.118 110.759 418.118C112.145 418.118 113.128 417.452 113.37 416.394H112.107ZM110.743 413.053C111.543 413.053 112.07 413.617 112.097 414.509H109.331C109.39 413.628 109.948 413.053 110.743 413.053ZM116.383 418.097C117.151 418.097 117.795 417.764 118.123 417.194H118.214V418H119.498V413.988C119.498 412.747 118.649 412.017 117.14 412.017C115.744 412.017 114.771 412.672 114.664 413.698H115.921C116.044 413.295 116.463 413.075 117.076 413.075C117.795 413.075 118.182 413.402 118.182 413.988V414.493L116.667 414.584C115.239 414.665 114.438 415.282 114.438 416.335C114.438 417.409 115.25 418.097 116.383 418.097ZM116.775 417.071C116.184 417.071 115.76 416.775 115.76 416.271C115.76 415.782 116.109 415.508 116.855 415.459L118.182 415.368V415.846C118.182 416.544 117.581 417.071 116.775 417.071ZM121.158 418H122.49V409.857H121.158V418ZM124.601 410.69V412.167H123.671V413.204H124.601V416.442C124.601 417.576 125.138 418.027 126.486 418.027C126.744 418.027 126.991 418.005 127.184 417.968V416.947C127.023 416.963 126.921 416.974 126.733 416.974C126.174 416.974 125.927 416.711 125.927 416.125V413.204H127.184V412.167H125.927V410.69H124.601ZM128.57 418H129.902V414.589C129.902 413.73 130.391 413.155 131.266 413.155C132.04 413.155 132.448 413.617 132.448 414.525V418H133.78V414.213C133.78 412.817 133.017 412.022 131.76 412.022C130.885 412.022 130.256 412.419 129.977 413.08H129.88V409.857H128.57V418Z" fill="#F2F2F2"/>
<path d="M255.308 418V414.836H258.558V413.708H255.308V411.415H258.864V410.25H253.922V418H255.308ZM260.26 418H261.592V414.589C261.592 413.762 262.194 413.225 263.059 413.225C263.284 413.225 263.639 413.263 263.741 413.3V412.086C263.617 412.054 263.381 412.033 263.188 412.033C262.43 412.033 261.796 412.462 261.635 413.042H261.544V412.129H260.26V418ZM268.516 416.394C268.322 416.834 267.866 417.082 267.205 417.082C266.33 417.082 265.766 416.458 265.733 415.465V415.395H269.837V414.971C269.837 413.128 268.833 412.017 267.157 412.017C265.454 412.017 264.396 413.204 264.396 415.089C264.396 416.969 265.438 418.118 267.167 418.118C268.553 418.118 269.536 417.452 269.778 416.394H268.516ZM267.151 413.053C267.952 413.053 268.478 413.617 268.505 414.509H265.739C265.798 413.628 266.356 413.053 267.151 413.053ZM275.004 416.394C274.811 416.834 274.354 417.082 273.693 417.082C272.818 417.082 272.254 416.458 272.222 415.465V415.395H276.325V414.971C276.325 413.128 275.321 412.017 273.645 412.017C271.942 412.017 270.884 413.204 270.884 415.089C270.884 416.969 271.926 418.118 273.656 418.118C275.042 418.118 276.024 417.452 276.266 416.394H275.004ZM273.64 413.053C274.44 413.053 274.966 413.617 274.993 414.509H272.227C272.286 413.628 272.845 413.053 273.64 413.053ZM283.968 418.193C285.757 418.193 287.067 417.135 287.25 415.567H285.886C285.698 416.437 284.951 416.99 283.968 416.99C282.647 416.99 281.825 415.889 281.825 414.122C281.825 412.36 282.647 411.259 283.963 411.259C284.94 411.259 285.687 411.866 285.88 412.801H287.245C287.083 411.195 285.725 410.056 283.963 410.056C281.766 410.056 280.407 411.608 280.407 414.127C280.407 416.636 281.771 418.193 283.968 418.193ZM288.706 418H290.038V409.857H288.706V418ZM292.401 411.146C292.841 411.146 293.201 410.797 293.201 410.357C293.201 409.922 292.841 409.567 292.401 409.567C291.966 409.567 291.606 409.922 291.606 410.357C291.606 410.797 291.966 411.146 292.401 411.146ZM291.74 418H293.067V412.129H291.74V418ZM294.721 418H296.053V414.579C296.053 413.698 296.553 413.145 297.348 413.145C298.159 413.145 298.535 413.601 298.535 414.514V418H299.867V414.203C299.867 412.806 299.152 412.017 297.842 412.017C296.966 412.017 296.375 412.414 296.096 413.069H296.005V412.129H294.721V418ZM302.123 411.146C302.563 411.146 302.923 410.797 302.923 410.357C302.923 409.922 302.563 409.567 302.123 409.567C301.688 409.567 301.328 409.922 301.328 410.357C301.328 410.797 301.688 411.146 302.123 411.146ZM301.462 418H302.789V412.129H301.462V418ZM309.519 414.09C309.379 412.876 308.466 412.017 306.957 412.017C305.189 412.017 304.153 413.15 304.153 415.051C304.153 416.974 305.195 418.118 306.962 418.118C308.45 418.118 309.374 417.291 309.519 416.077H308.251C308.111 416.695 307.649 417.022 306.957 417.022C306.049 417.022 305.501 416.297 305.501 415.051C305.501 413.827 306.043 413.107 306.957 413.107C307.687 413.107 308.127 413.521 308.251 414.09H309.519ZM310.657 413.805C310.657 414.686 311.189 415.202 312.317 415.459L313.359 415.701C313.917 415.83 314.17 416.045 314.17 416.378C314.17 416.824 313.703 417.13 313.031 417.13C312.365 417.13 311.952 416.861 311.823 416.426H310.507C310.609 417.484 311.533 418.118 312.999 418.118C314.465 418.118 315.502 417.372 315.502 416.249C315.502 415.384 314.981 414.906 313.858 414.648L312.822 414.417C312.231 414.278 311.952 414.068 311.952 413.735C311.952 413.3 312.408 413.005 313.015 413.005C313.638 413.005 314.03 413.273 314.127 413.687H315.378C315.282 412.629 314.406 412.017 313.01 412.017C311.624 412.017 310.657 412.752 310.657 413.805Z" fill="#F2F2F2"/>
<path d="M62.9375 539V531.25H61.5571V534.472H57.7866V531.25H56.4009V539H57.7866V535.638H61.5571V539H62.9375ZM67.2505 539.118C69.0068 539.118 70.0757 537.969 70.0757 536.062C70.0757 534.166 69.0015 533.017 67.2505 533.017C65.5049 533.017 64.4253 534.171 64.4253 536.062C64.4253 537.969 65.4888 539.118 67.2505 539.118ZM67.2505 538.028C66.3213 538.028 65.7896 537.308 65.7896 536.067C65.7896 534.827 66.3213 534.107 67.2505 534.107C68.1743 534.107 68.7061 534.827 68.7061 536.067C68.7061 537.308 68.1797 538.028 67.2505 538.028ZM71.4185 539H72.7505V535.428C72.7505 534.698 73.2393 534.145 73.8999 534.145C74.5552 534.145 74.9634 534.542 74.9634 535.192V539H76.2578V535.332C76.2578 534.66 76.7144 534.145 77.4072 534.145C78.1216 534.145 78.4814 534.526 78.4814 535.289V539H79.8081V534.961C79.8081 533.742 79.0991 533.017 77.9229 533.017C77.1064 533.017 76.4297 533.436 76.1396 534.075H76.0483C75.8013 533.425 75.2373 533.017 74.4263 533.017C73.6475 533.017 73.0459 533.414 72.7935 534.075H72.7021V533.129H71.4185V539ZM85.2168 537.394C85.0234 537.834 84.5669 538.082 83.9062 538.082C83.0308 538.082 82.4668 537.458 82.4346 536.465V536.395H86.5381V535.971C86.5381 534.128 85.5337 533.017 83.8579 533.017C82.1553 533.017 81.0972 534.204 81.0972 536.089C81.0972 537.969 82.1392 539.118 83.8687 539.118C85.2544 539.118 86.2373 538.452 86.479 537.394H85.2168ZM83.8525 534.053C84.6528 534.053 85.1792 534.617 85.2061 535.509H82.4399C82.499 534.628 83.0576 534.053 83.8525 534.053ZM94.2617 539V532.415H96.6519V531.25H90.4912V532.415H92.876V539H94.2617ZM97.2749 539H98.6069V535.589C98.6069 534.762 99.2085 534.225 100.073 534.225C100.299 534.225 100.653 534.263 100.755 534.3V533.086C100.632 533.054 100.396 533.033 100.202 533.033C99.4448 533.033 98.811 533.462 98.6499 534.042H98.5586V533.129H97.2749V539ZM105.53 537.394C105.337 537.834 104.88 538.082 104.22 538.082C103.344 538.082 102.78 537.458 102.748 536.465V536.395H106.852V535.971C106.852 534.128 105.847 533.017 104.171 533.017C102.469 533.017 101.411 534.204 101.411 536.089C101.411 537.969 102.453 539.118 104.182 539.118C105.568 539.118 106.551 538.452 106.792 537.394H105.53ZM104.166 534.053C104.966 534.053 105.493 534.617 105.52 535.509H102.753C102.812 534.628 103.371 534.053 104.166 534.053ZM109.806 539.097C110.574 539.097 111.218 538.764 111.546 538.194H111.637V539H112.921V534.988C112.921 533.747 112.072 533.017 110.563 533.017C109.167 533.017 108.194 533.672 108.087 534.698H109.344C109.467 534.295 109.886 534.075 110.499 534.075C111.218 534.075 111.605 534.402 111.605 534.988V535.493L110.09 535.584C108.662 535.665 107.861 536.282 107.861 537.335C107.861 538.409 108.672 539.097 109.806 539.097ZM110.198 538.071C109.607 538.071 109.183 537.775 109.183 537.271C109.183 536.782 109.532 536.508 110.278 536.459L111.605 536.368V536.846C111.605 537.544 111.003 538.071 110.198 538.071ZM114.951 531.69V533.167H114.022V534.204H114.951V537.442C114.951 538.576 115.488 539.027 116.836 539.027C117.094 539.027 117.341 539.005 117.535 538.968V537.947C117.374 537.963 117.271 537.974 117.083 537.974C116.525 537.974 116.278 537.711 116.278 537.125V534.204H117.535V533.167H116.278V531.69H114.951ZM118.867 539H120.199V535.428C120.199 534.698 120.688 534.145 121.348 534.145C122.003 534.145 122.412 534.542 122.412 535.192V539H123.706V535.332C123.706 534.66 124.163 534.145 124.855 534.145C125.57 534.145 125.93 534.526 125.93 535.289V539H127.256V534.961C127.256 533.742 126.547 533.017 125.371 533.017C124.555 533.017 123.878 533.436 123.588 534.075H123.497C123.25 533.425 122.686 533.017 121.875 533.017C121.096 533.017 120.494 533.414 120.242 534.075H120.15V533.129H118.867V539ZM132.665 537.394C132.472 537.834 132.015 538.082 131.354 538.082C130.479 538.082 129.915 537.458 129.883 536.465V536.395H133.986V535.971C133.986 534.128 132.982 533.017 131.306 533.017C129.604 533.017 128.545 534.204 128.545 536.089C128.545 537.969 129.587 539.118 131.317 539.118C132.703 539.118 133.686 538.452 133.927 537.394H132.665ZM131.301 534.053C132.101 534.053 132.627 534.617 132.654 535.509H129.888C129.947 534.628 130.506 534.053 131.301 534.053ZM135.324 539H136.656V535.579C136.656 534.698 137.155 534.145 137.95 534.145C138.761 534.145 139.137 534.601 139.137 535.514V539H140.469V535.203C140.469 533.806 139.755 533.017 138.444 533.017C137.569 533.017 136.978 533.414 136.699 534.069H136.607V533.129H135.324V539ZM142.473 531.69V533.167H141.543V534.204H142.473V537.442C142.473 538.576 143.01 539.027 144.358 539.027C144.616 539.027 144.863 539.005 145.056 538.968V537.947C144.895 537.963 144.793 537.974 144.605 537.974C144.046 537.974 143.799 537.711 143.799 537.125V534.204H145.056V533.167H143.799V531.69H142.473ZM146.179 534.805C146.179 535.686 146.71 536.202 147.838 536.459L148.88 536.701C149.439 536.83 149.691 537.045 149.691 537.378C149.691 537.824 149.224 538.13 148.553 538.13C147.887 538.13 147.473 537.861 147.344 537.426H146.028C146.13 538.484 147.054 539.118 148.521 539.118C149.987 539.118 151.023 538.372 151.023 537.249C151.023 536.384 150.502 535.906 149.38 535.648L148.343 535.417C147.752 535.278 147.473 535.068 147.473 534.735C147.473 534.3 147.93 534.005 148.537 534.005C149.16 534.005 149.552 534.273 149.648 534.687H150.9C150.803 533.629 149.928 533.017 148.531 533.017C147.146 533.017 146.179 533.752 146.179 534.805Z" fill="#F2F2F2"/>
<path d="M301.195 246.006H280.316C279.819 246.006 279.416 246.409 279.416 246.906V251.915H273.129C272.632 251.915 272.229 252.318 272.229 252.815V263.163C272.229 263.66 272.632 264.063 273.129 264.063H301.195C301.692 264.063 302.095 263.66 302.095 263.163V246.906C302.095 246.409 301.692 246.006 301.195 246.006Z" fill="#AFC1C9"/>
<path d="M302.171 244.812H284.419C284.299 244.812 284.185 244.86 284.101 244.944C284.016 245.029 283.969 245.143 283.969 245.263V246.324C283.969 246.465 284.025 246.601 284.124 246.7C284.224 246.8 284.359 246.856 284.5 246.856H302.09C302.23 246.856 302.366 246.8 302.465 246.7C302.565 246.601 302.621 246.465 302.621 246.324V245.263C302.621 245.143 302.574 245.029 302.489 244.944C302.405 244.86 302.29 244.812 302.171 244.812Z" fill="#95AAAD"/>
<path d="M272.153 250.496H289.905C290.024 250.496 290.139 250.543 290.223 250.627C290.308 250.712 290.355 250.826 290.355 250.946V252.007C290.355 252.148 290.299 252.284 290.199 252.383C290.1 252.483 289.964 252.539 289.823 252.539H272.234C272.093 252.539 271.958 252.483 271.858 252.383C271.759 252.284 271.703 252.148 271.703 252.007V250.946C271.703 250.826 271.75 250.712 271.834 250.627C271.919 250.543 272.033 250.496 272.153 250.496Z" fill="#95AAAD"/>
<path d="M290.776 234.875H274.669C274.409 234.875 274.198 235.125 274.198 235.433V263.505C274.198 263.813 274.409 264.062 274.669 264.062H290.776C291.036 264.062 291.247 263.813 291.247 263.505V235.433C291.247 235.125 291.036 234.875 290.776 234.875Z" fill="#CFDBE2"/>
<path d="M285.683 240.096H283.611V238.025C283.611 237.905 283.564 237.791 283.479 237.707C283.395 237.622 283.281 237.575 283.161 237.575H282.284C282.164 237.575 282.05 237.622 281.966 237.707C281.881 237.791 281.834 237.905 281.834 238.025V240.096H279.763C279.643 240.096 279.529 240.143 279.444 240.228C279.36 240.312 279.312 240.427 279.312 240.546V241.423C279.312 241.543 279.36 241.657 279.444 241.742C279.529 241.826 279.643 241.873 279.763 241.873H281.834V243.945C281.834 244.064 281.881 244.179 281.966 244.263C282.05 244.347 282.164 244.395 282.284 244.395H283.161C283.281 244.395 283.395 244.347 283.479 244.263C283.564 244.179 283.611 244.064 283.611 243.945V241.873H285.683C285.802 241.873 285.916 241.826 286.001 241.742C286.085 241.657 286.133 241.543 286.133 241.423V240.546C286.133 240.427 286.085 240.312 286.001 240.228C285.916 240.143 285.802 240.096 285.683 240.096Z" fill="#FF473E"/>
<path d="M299.994 256.023H293.382C293.263 256.023 293.149 255.976 293.064 255.891C292.98 255.807 292.932 255.692 292.932 255.573V252.921C292.932 252.802 292.98 252.688 293.064 252.603C293.149 252.519 293.263 252.471 293.382 252.471H299.994C300.113 252.471 300.227 252.519 300.312 252.603C300.396 252.688 300.444 252.802 300.444 252.921V255.573C300.444 255.692 300.396 255.807 300.312 255.891C300.227 255.976 300.113 256.023 299.994 256.023ZM300.521 261.146V258.494C300.521 258.375 300.474 258.261 300.389 258.176C300.305 258.092 300.19 258.044 300.071 258.044H293.305C293.186 258.044 293.071 258.092 292.987 258.176C292.902 258.261 292.855 258.375 292.855 258.494V261.146C292.855 261.265 292.902 261.38 292.987 261.464C293.071 261.549 293.186 261.596 293.305 261.596H300.071C300.19 261.596 300.305 261.549 300.389 261.464C300.474 261.38 300.521 261.265 300.521 261.146ZM300.521 249.823V248.947C300.521 248.828 300.474 248.713 300.389 248.629C300.305 248.544 300.19 248.497 300.071 248.497H293.305C293.186 248.497 293.071 248.544 292.987 248.629C292.902 248.713 292.855 248.828 292.855 248.947V249.823C292.855 249.942 292.902 250.057 292.987 250.141C293.071 250.226 293.186 250.273 293.305 250.273H300.071C300.19 250.273 300.305 250.226 300.389 250.141C300.474 250.057 300.521 249.942 300.521 249.823Z" fill="#0096D1"/>
<path d="M277.303 259.319H288.142V264.062H277.303V259.319Z" fill="#2B3B47"/>
<path d="M283.852 256.023H281.62C281.501 256.023 281.387 255.976 281.302 255.891C281.218 255.807 281.17 255.692 281.17 255.573V252.769C281.17 252.65 281.218 252.535 281.302 252.451C281.387 252.366 281.501 252.319 281.62 252.319H283.852C283.972 252.319 284.086 252.366 284.17 252.451C284.255 252.535 284.302 252.65 284.302 252.769V255.573C284.302 255.692 284.255 255.807 284.17 255.891C284.086 255.976 283.972 256.023 283.852 256.023ZM289.175 255.573V252.769C289.175 252.65 289.127 252.535 289.043 252.451C288.959 252.366 288.844 252.319 288.725 252.319H286.493C286.374 252.319 286.259 252.366 286.175 252.451C286.09 252.535 286.043 252.65 286.043 252.769V255.573C286.043 255.692 286.09 255.807 286.175 255.891C286.259 255.976 286.374 256.023 286.493 256.023H288.725C288.844 256.023 288.959 255.976 289.043 255.891C289.127 255.807 289.175 255.692 289.175 255.573ZM279.43 255.573V252.769C279.43 252.65 279.382 252.535 279.298 252.451C279.214 252.366 279.099 252.319 278.98 252.319H276.748C276.629 252.319 276.514 252.366 276.43 252.451C276.345 252.535 276.298 252.65 276.298 252.769V255.573C276.298 255.692 276.345 255.807 276.43 255.891C276.514 255.976 276.629 256.023 276.748 256.023H278.98C279.099 256.023 279.214 255.976 279.298 255.891C279.382 255.807 279.43 255.692 279.43 255.573ZM278.194 249.823V247.019C278.194 246.96 278.182 246.901 278.16 246.847C278.137 246.792 278.104 246.742 278.062 246.701C278.02 246.659 277.971 246.626 277.916 246.603C277.861 246.58 277.803 246.569 277.744 246.569H276.748C276.689 246.569 276.63 246.58 276.576 246.603C276.521 246.626 276.471 246.659 276.43 246.701C276.388 246.742 276.355 246.792 276.332 246.847C276.309 246.901 276.298 246.96 276.298 247.019V249.823C276.298 249.882 276.309 249.94 276.332 249.995C276.355 250.05 276.388 250.099 276.43 250.141C276.471 250.183 276.521 250.216 276.576 250.239C276.63 250.261 276.689 250.273 276.748 250.273H277.744C277.863 250.273 277.978 250.225 278.062 250.141C278.146 250.057 278.194 249.942 278.194 249.823ZM281.854 249.823V247.019C281.854 246.9 281.807 246.785 281.722 246.701C281.638 246.616 281.524 246.569 281.404 246.569H280.408C280.289 246.569 280.174 246.616 280.09 246.701C280.006 246.785 279.958 246.9 279.958 247.019V249.823C279.958 249.942 280.006 250.057 280.09 250.141C280.174 250.225 280.289 250.273 280.408 250.273H281.404C281.524 250.273 281.638 250.225 281.722 250.141C281.807 250.057 281.854 249.942 281.854 249.823ZM285.514 249.823V247.019C285.514 246.9 285.467 246.785 285.383 246.701C285.298 246.616 285.184 246.569 285.064 246.569H284.068C283.949 246.569 283.835 246.616 283.75 246.701C283.666 246.785 283.618 246.9 283.618 247.019V249.823C283.618 249.942 283.666 250.057 283.75 250.141C283.835 250.225 283.949 250.273 284.068 250.273H285.064C285.184 250.273 285.298 250.225 285.383 250.141C285.467 250.057 285.514 249.942 285.514 249.823ZM289.175 249.823V247.019C289.175 246.9 289.127 246.785 289.043 246.701C288.959 246.616 288.844 246.569 288.725 246.569H287.729C287.609 246.569 287.495 246.616 287.411 246.701C287.326 246.785 287.279 246.9 287.279 247.019V249.823C287.279 249.942 287.326 250.057 287.411 250.141C287.495 250.225 287.609 250.273 287.729 250.273H288.725C288.844 250.273 288.959 250.225 289.043 250.141C289.127 250.057 289.175 249.942 289.175 249.823Z" fill="#00B1FF"/>
<path d="M288.142 259.82H277.303V259.306C277.303 258.966 277.578 258.69 277.919 258.69H287.526C287.866 258.69 288.142 258.966 288.142 259.306V259.82H288.142Z" fill="#67747C"/>
<path d="M291.612 234.254H273.86C273.741 234.254 273.626 234.301 273.542 234.386C273.458 234.47 273.41 234.585 273.41 234.704V235.766C273.41 235.907 273.466 236.042 273.566 236.142C273.666 236.241 273.801 236.297 273.942 236.297H291.531C291.672 236.297 291.807 236.241 291.907 236.142C292.006 236.042 292.062 235.907 292.062 235.766V234.704C292.062 234.585 292.015 234.47 291.931 234.386C291.846 234.301 291.732 234.254 291.612 234.254Z" fill="#95AAAD"/>
<path d="M118.125 512.625H88.875V501.292L103.5 489.25L118.125 501.292V512.625Z" fill="#E8EAF6"/>
<path d="M115.688 499.875L111.625 496.333V491.375H115.688V499.875Z" fill="#C5CAE9"/>
<path d="M88.875 512.625H118.125V516.167H88.875V512.625Z" fill="#C5CAE9"/>
<path d="M103.5 488.046L87.25 501.221L88.875 502.779L103.5 490.95L118.125 502.779L119.75 501.221L103.5 488.046Z" fill="#B71C1C"/>
<path d="M98.625 504.833H108.375V516.166H98.625V504.833Z" fill="#D84315"/>
<path d="M101.062 497.042H105.938V501.292H101.062V497.042Z" fill="#01579B"/>
<path d="M106.344 510.146C106.1 510.146 105.938 510.287 105.938 510.5V511.916C105.938 512.129 106.1 512.271 106.344 512.271C106.588 512.271 106.75 512.129 106.75 511.916V510.5C106.75 510.287 106.588 510.146 106.344 510.146Z" fill="#FF8A65"/>
<path d="M262.089 534.25V542H264.995C267.315 542 268.642 540.577 268.642 538.09C268.642 535.657 267.299 534.25 264.995 534.25H262.089ZM263.475 535.415H264.812C266.333 535.415 267.229 536.403 267.229 538.111C267.229 539.857 266.354 540.834 264.812 540.834H263.475V535.415ZM270.769 535.146C271.209 535.146 271.569 534.797 271.569 534.357C271.569 533.922 271.209 533.567 270.769 533.567C270.334 533.567 269.974 533.922 269.974 534.357C269.974 534.797 270.334 535.146 270.769 535.146ZM270.108 542H271.435V536.129H270.108V542ZM274.706 542.097C275.474 542.097 276.119 541.764 276.446 541.194H276.538V542H277.821V537.988C277.821 536.747 276.973 536.017 275.463 536.017C274.067 536.017 273.095 536.672 272.987 537.698H274.244C274.368 537.295 274.787 537.075 275.399 537.075C276.119 537.075 276.505 537.402 276.505 537.988V538.493L274.991 538.584C273.562 538.665 272.762 539.282 272.762 540.335C272.762 541.409 273.573 542.097 274.706 542.097ZM275.098 541.071C274.507 541.071 274.083 540.775 274.083 540.271C274.083 539.782 274.432 539.508 275.179 539.459L276.505 539.368V539.846C276.505 540.544 275.904 541.071 275.098 541.071ZM279.481 542H280.813V533.857H279.481V542ZM288.134 542.188C290.105 542.188 291.276 540.646 291.276 538.031C291.276 535.463 290.03 534.056 288.177 534.056C286.49 534.056 285.298 535.189 285.298 536.774C285.298 538.262 286.372 539.347 287.849 539.347C288.757 539.347 289.493 538.928 289.858 538.192H289.949C289.933 540.013 289.283 541.055 288.15 541.055C287.484 541.055 286.952 540.689 286.786 540.099H285.405C285.631 541.361 286.716 542.188 288.134 542.188ZM288.182 538.278C287.28 538.278 286.657 537.644 286.657 536.731C286.657 535.855 287.312 535.184 288.188 535.184C289.063 535.184 289.718 535.866 289.718 536.758C289.718 537.639 289.079 538.278 288.182 538.278ZM294.633 542H296.019V534.25H294.638L292.613 535.673V536.978L294.542 535.614H294.633V542ZM300.09 542H301.476V534.25H300.095L298.07 535.673V536.978L299.999 535.614H300.09V542Z" fill="#F2F2F2"/>
<path d="M287.311 511.378L287.7 511.115C288.735 510.481 289.099 510.709 289.73 511.69L293.14 516.933C294.158 518.495 294.723 518.867 293.301 519.83L292.912 520.093L287.311 511.378ZM286.416 512.059L291.856 520.524C290.126 521.304 285.555 523.02 282.876 521.095C280.486 519.367 280.484 518.771 278.82 516.903C276.122 513.254 273.352 508.796 271.291 505.336C270.287 503.032 269.64 502.809 269.165 499.909C268.664 496.823 272.096 493.271 273.495 491.955L278.935 500.42L275.963 501.723C275.118 502.101 275.643 503.638 276.385 504.793C277.686 506.797 280.317 510.91 281.441 512.512C282.171 513.647 283.348 514.781 284.061 514.175L286.416 512.059ZM274.325 491.193L274.73 490.934C276.137 490.117 276.255 490.787 277.241 492.342L280.597 497.607C281.196 498.581 281.287 498.998 280.331 499.649L279.93 499.893L274.325 491.193Z" fill="#A30D12"/>
<g filter="url(#filter5_d)">
<path d="M44 225C44 219.477 48.4772 215 54 215H159C164.523 215 169 219.477 169 225V295C169 300.523 164.523 305 159 305H54C48.4772 305 44 300.523 44 295V225Z" fill="#0064BE"/>
</g>
<path d="M70.458 285.9C70.5278 287.302 71.7041 288.193 73.4819 288.193C75.3618 288.193 76.5273 287.259 76.5273 285.755C76.5273 284.579 75.8667 283.923 74.293 283.563L73.4014 283.359C72.4399 283.134 72.0479 282.828 72.0479 282.296C72.0479 281.625 72.6387 281.184 73.5303 281.184C74.3789 281.184 74.9805 281.619 75.0771 282.312H76.4038C76.3394 280.985 75.1631 280.056 73.5356 280.056C71.8008 280.056 70.6514 280.991 70.6514 282.387C70.6514 283.537 71.312 284.229 72.7192 284.552L73.7236 284.783C74.7173 285.014 75.1416 285.357 75.1416 285.921C75.1416 286.582 74.481 287.06 73.5679 287.06C72.585 287.06 71.8975 286.609 71.8115 285.9H70.458ZM81.7749 286.394C81.5815 286.834 81.125 287.082 80.4644 287.082C79.5889 287.082 79.0249 286.458 78.9927 285.465V285.395H83.0962V284.971C83.0962 283.128 82.0918 282.017 80.416 282.017C78.7134 282.017 77.6553 283.204 77.6553 285.089C77.6553 286.969 78.6973 288.118 80.4268 288.118C81.8125 288.118 82.7954 287.452 83.0371 286.394H81.7749ZM80.4106 283.053C81.2109 283.053 81.7373 283.617 81.7642 284.509H78.998C79.0571 283.628 79.6157 283.053 80.4106 283.053ZM88.2632 286.394C88.0698 286.834 87.6133 287.082 86.9526 287.082C86.0771 287.082 85.5132 286.458 85.481 285.465V285.395H89.5845V284.971C89.5845 283.128 88.5801 282.017 86.9043 282.017C85.2017 282.017 84.1436 283.204 84.1436 285.089C84.1436 286.969 85.1855 288.118 86.915 288.118C88.3008 288.118 89.2837 287.452 89.5254 286.394H88.2632ZM86.8989 283.053C87.6992 283.053 88.2256 283.617 88.2524 284.509H85.4863C85.5454 283.628 86.104 283.053 86.8989 283.053ZM95.4712 288.097C96.2393 288.097 96.8838 287.764 97.2114 287.194H97.3027V288H98.5864V283.988C98.5864 282.747 97.7378 282.017 96.2285 282.017C94.832 282.017 93.8599 282.672 93.7524 283.698H95.0093C95.1328 283.295 95.5518 283.075 96.1641 283.075C96.8838 283.075 97.2705 283.402 97.2705 283.988V284.493L95.7559 284.584C94.3271 284.665 93.5269 285.282 93.5269 286.335C93.5269 287.409 94.3379 288.097 95.4712 288.097ZM95.8633 287.071C95.2725 287.071 94.8481 286.775 94.8481 286.271C94.8481 285.782 95.1973 285.508 95.9438 285.459L97.2705 285.368V285.846C97.2705 286.544 96.6689 287.071 95.8633 287.071ZM103.265 280.25V288H106.17C108.491 288 109.817 286.577 109.817 284.09C109.817 281.657 108.475 280.25 106.17 280.25H103.265ZM104.65 281.415H105.988C107.508 281.415 108.405 282.403 108.405 284.111C108.405 285.857 107.529 286.834 105.988 286.834H104.65V281.415ZM113.803 288.118C115.559 288.118 116.628 286.969 116.628 285.062C116.628 283.166 115.554 282.017 113.803 282.017C112.057 282.017 110.978 283.171 110.978 285.062C110.978 286.969 112.041 288.118 113.803 288.118ZM113.803 287.028C112.874 287.028 112.342 286.308 112.342 285.067C112.342 283.827 112.874 283.107 113.803 283.107C114.727 283.107 115.258 283.827 115.258 285.067C115.258 286.308 114.732 287.028 113.803 287.028ZM123.046 284.09C122.907 282.876 121.994 282.017 120.484 282.017C118.717 282.017 117.681 283.15 117.681 285.051C117.681 286.974 118.723 288.118 120.49 288.118C121.978 288.118 122.901 287.291 123.046 286.077H121.779C121.639 286.695 121.177 287.022 120.484 287.022C119.577 287.022 119.029 286.297 119.029 285.051C119.029 283.827 119.571 283.107 120.484 283.107C121.215 283.107 121.655 283.521 121.779 284.09H123.046ZM124.819 280.69V282.167H123.89V283.204H124.819V286.442C124.819 287.576 125.356 288.027 126.704 288.027C126.962 288.027 127.209 288.005 127.402 287.968V286.947C127.241 286.963 127.139 286.974 126.951 286.974C126.393 286.974 126.146 286.711 126.146 286.125V283.204H127.402V282.167H126.146V280.69H124.819ZM131.216 288.118C132.972 288.118 134.041 286.969 134.041 285.062C134.041 283.166 132.967 282.017 131.216 282.017C129.47 282.017 128.391 283.171 128.391 285.062C128.391 286.969 129.454 288.118 131.216 288.118ZM131.216 287.028C130.287 287.028 129.755 286.308 129.755 285.067C129.755 283.827 130.287 283.107 131.216 283.107C132.14 283.107 132.671 283.827 132.671 285.067C132.671 286.308 132.145 287.028 131.216 287.028ZM135.384 288H136.716V284.589C136.716 283.762 137.317 283.225 138.182 283.225C138.408 283.225 138.762 283.263 138.864 283.3V282.086C138.741 282.054 138.504 282.033 138.311 282.033C137.554 282.033 136.92 282.462 136.759 283.042H136.667V282.129H135.384V288Z" fill="white"/>
<g clip-path="url(#clip1)">
<path d="M105.935 258.641L109.653 255.149L108.177 254.875C107.464 254.732 106.952 253.905 106.952 253.179V249.94H103.5H100.048V253.179C100.048 253.905 99.5356 254.732 98.8232 254.875L97.3472 255.149L101.065 258.641C102.434 259.927 104.566 259.927 105.935 258.641Z" fill="#FFE7CF"/>
<path d="M105.28 249.94V254.851C105.28 255.577 105.792 256.404 106.505 256.547L107.777 256.911L109.653 255.149L108.177 254.875C107.464 254.732 106.952 253.905 106.952 253.179V249.94H105.28Z" fill="#F4D5BA"/>
<path d="M107.809 254.698L103.5 257.918L99.1904 254.697C98.9593 254.525 98.66 254.472 98.3838 254.555L91.1439 256.74C90.3649 256.975 89.786 257.63 89.649 258.432L88.0539 267.771C87.9441 268.413 88.4391 269 89.091 269H117.909C118.561 269 119.056 268.413 118.946 267.771L117.351 258.432C117.214 257.63 116.635 256.975 115.856 256.74L108.616 254.555C108.34 254.472 108.04 254.525 107.809 254.698Z" fill="#24D9DE"/>
<path d="M98.3842 254.555L97.1387 254.931L99.8875 258.778C100.104 259.08 100.501 259.192 100.844 259.047L103.5 257.919L99.1908 254.697C98.9597 254.525 98.6604 254.472 98.3842 254.555Z" fill="#D0D1D2"/>
<path d="M106.156 259.047C106.499 259.192 106.896 259.08 107.113 258.778L109.862 254.931L109.855 254.929L108.616 254.555C108.34 254.472 108.04 254.525 107.809 254.697L103.5 257.918L106.156 259.047Z" fill="#D0D1D2"/>
<path d="M103.5 257.918L101.411 258.806L102.632 260.225H104.368L105.589 258.806L103.5 257.918Z" fill="#F9644B"/>
<path d="M104.368 260.225H103.5H102.632L101.03 269H105.97L104.368 260.225Z" fill="#F9644B"/>
<path d="M103.5 267.371C103.5 267.371 98.66 254.472 98.3838 254.556L91.1439 256.74C90.3649 256.975 89.786 257.631 89.649 258.433L88.0539 267.771C87.9441 268.413 88.4391 269 89.091 269H117.909C118.561 269 119.056 268.413 118.946 267.771L117.351 258.433C117.214 257.631 116.635 256.975 115.856 256.74L108.616 254.556C108.34 254.472 103.5 267.371 103.5 267.371Z" fill="#E1EFFB"/>
<path d="M118.946 267.771L117.351 258.433C117.214 257.631 116.635 256.975 115.856 256.74L108.616 254.556C108.541 254.533 108.128 255.47 107.568 256.846L112.819 258.43C113.216 258.55 113.511 258.884 113.58 259.292L115.239 269H117.909C118.561 269 119.056 268.413 118.946 267.771Z" fill="#CADDEA"/>
<path d="M111.197 261.707C110.905 261.707 110.669 261.471 110.669 261.179V255.186C110.669 253.183 109.103 251.54 107.104 251.446C106.813 251.432 106.588 251.185 106.602 250.894C106.615 250.602 106.863 250.378 107.154 250.391C109.717 250.512 111.725 252.618 111.725 255.186V261.179C111.725 261.471 111.488 261.707 111.197 261.707Z" fill="#44798C"/>
<path d="M95.8039 257.801C95.5123 257.801 95.2759 257.565 95.2759 257.273V255.187C95.2759 252.626 97.2777 250.521 99.8333 250.393C100.125 250.378 100.372 250.603 100.387 250.894C100.402 251.185 100.177 251.433 99.886 251.447C97.8931 251.547 96.3319 253.19 96.3319 255.187V257.273C96.3319 257.565 96.0955 257.801 95.8039 257.801Z" fill="#44798C"/>
<path d="M111.19 263.73C112.407 263.73 113.394 262.743 113.394 261.526C113.394 260.309 112.407 259.322 111.19 259.322C109.973 259.322 108.986 260.309 108.986 261.526C108.986 262.743 109.973 263.73 111.19 263.73Z" fill="#1785B8"/>
<path d="M111.19 262.497C111.726 262.497 112.161 262.062 112.161 261.526C112.161 260.99 111.726 260.555 111.19 260.555C110.654 260.555 110.219 260.99 110.219 261.526C110.219 262.062 110.654 262.497 111.19 262.497Z" fill="#E1EFFB"/>
<path d="M97.55 265.851H96.8917C96.6001 265.851 96.3637 265.615 96.3637 265.323C96.3637 265.032 96.6001 264.795 96.8917 264.795H97.55C97.6295 264.795 97.7061 264.762 97.76 264.704C97.8139 264.645 97.8414 264.566 97.8353 264.487L97.4505 259.551C97.4369 259.376 97.3953 259.205 97.3269 259.044C97.0832 258.468 96.5053 258.098 95.8526 258.098C95.8486 258.098 95.8446 258.098 95.8405 258.098L95.7535 258.099C95.0819 258.104 94.4813 258.513 94.259 259.117C94.2076 259.256 94.1757 259.402 94.1641 259.551L93.7795 264.487C93.7733 264.566 93.8007 264.645 93.8546 264.704C93.9086 264.762 93.9852 264.795 94.0646 264.795H94.7229C95.0145 264.795 95.2509 265.032 95.2509 265.323C95.2509 265.615 95.0145 265.851 94.7229 265.851H94.0646C93.6917 265.851 93.3326 265.694 93.0795 265.421C92.8263 265.147 92.6976 264.777 92.7267 264.405L93.1113 259.469C93.1304 259.223 93.1831 258.982 93.268 258.752C93.6415 257.738 94.6373 257.051 95.7461 257.043L95.833 257.043C95.8396 257.043 95.8461 257.042 95.8527 257.042C96.9306 257.042 97.8895 257.665 98.2992 258.632C98.4121 258.898 98.4808 259.18 98.5033 259.469L98.888 264.405C98.917 264.777 98.7884 265.147 98.5351 265.421C98.282 265.695 97.9229 265.851 97.55 265.851Z" fill="#2C5871"/>
<path d="M97.4081 245.177V243.202H96.2031C95.63 243.202 95.1655 243.666 95.1655 244.239V245.042C95.1655 245.615 95.63 246.079 96.2031 246.079H97.4081V245.177Z" fill="#F4D5BA"/>
<path d="M110.797 243.202H109.592V245.177V246.079H110.797C111.37 246.079 111.834 245.615 111.834 245.042V244.239C111.834 243.666 111.37 243.202 110.797 243.202Z" fill="#F4D5BA"/>
<path d="M107.93 236.473C106.89 235.579 105.429 235.637 103.5 235.615C101.57 235.637 100.109 235.579 99.07 236.473C97.7446 237.615 97.0264 239.31 97.0264 241.059V246.144C97.0264 247.893 99.2249 252.533 103.5 252.533C107.775 252.533 109.973 247.893 109.973 246.144V241.059C109.973 239.31 109.255 237.615 107.93 236.473Z" fill="#FFE7CF"/>
<path d="M107.93 236.473C107.517 236.118 107.038 235.913 106.489 235.793C106.489 235.796 106.489 235.798 106.489 235.801V246.143C106.489 247.637 104.886 251.236 101.758 252.257C102.294 252.432 102.875 252.532 103.5 252.532C107.775 252.532 109.974 247.893 109.974 246.143V241.059C109.974 239.309 109.255 237.614 107.93 236.473Z" fill="#F4D5BA"/>
<path d="M107.394 234H103.5H99.6058C97.6017 234 95.9771 235.625 95.9771 237.629V243.586C95.9771 243.586 96.9763 243.563 97.6184 244.199C97.7521 244.331 97.9793 244.234 97.9793 244.046V239.172C97.9793 238.286 98.6974 237.568 99.5832 237.568H101.041C101.423 237.568 101.793 237.7 102.089 237.942L102.232 238.059C102.59 238.351 103.038 238.511 103.5 238.511C103.962 238.511 104.41 238.351 104.768 238.059L104.911 237.942C105.207 237.7 105.577 237.568 105.959 237.568H107.417C108.303 237.568 109.021 238.286 109.021 239.172V244.046C109.021 244.234 109.248 244.331 109.382 244.199C110.024 243.563 111.023 243.586 111.023 243.586V237.629C111.023 235.625 109.399 234 107.394 234Z" fill="#FFB125"/>
<path d="M107.394 234H103.91C105.895 234 107.507 235.595 107.537 237.573C108.367 237.634 109.021 238.326 109.021 239.172V244.046C109.021 244.234 109.248 244.331 109.382 244.199C110.024 243.563 111.023 243.586 111.023 243.586V237.629C111.023 235.625 109.398 234 107.394 234Z" fill="#FF901D"/>
</g>
<g clip-path="url(#clip2)">
<path d="M297.015 375.833V388.881C297.015 391.412 294.956 393.472 292.424 393.472H271.575C269.044 393.472 266.984 391.412 266.984 388.881V375.833C266.984 375.55 267.098 375.279 267.3 375.081L279.62 362.972C280.276 362.328 281.138 362.005 282 362.005C282.862 362.005 283.724 362.328 284.38 362.972L296.699 375.081C296.901 375.279 297.015 375.55 297.015 375.833Z" fill="#EFEFEF"/>
<path d="M297.015 375.833V388.881C297.015 391.412 294.956 393.472 292.425 393.472H282V362.005C282.862 362.005 283.724 362.328 284.38 362.972L296.7 375.081C296.902 375.279 297.015 375.55 297.015 375.833Z" fill="#E5E5E9"/>
<path d="M299.698 378.03C299.491 378.239 299.218 378.345 298.946 378.345C298.678 378.345 298.412 378.244 298.207 378.042L282.901 363.001C282.652 362.756 282.326 362.634 282 362.634C281.674 362.634 281.347 362.756 281.099 363.001L265.793 378.042C265.379 378.451 264.711 378.445 264.302 378.03C263.894 377.614 263.9 376.946 264.315 376.538L279.62 361.496C280.276 360.851 281.138 360.528 282 360.528C282.862 360.528 283.724 360.851 284.38 361.496L299.685 376.538C300.1 376.946 300.106 377.614 299.698 378.03Z" fill="#6E6E6E"/>
<path d="M289.256 378.081V382.29C289.256 382.678 288.942 382.993 288.553 382.993H284.808V386.739C284.808 387.127 284.493 387.442 284.105 387.442H279.896C279.507 387.442 279.192 387.127 279.192 386.739V382.993H275.447C275.058 382.993 274.744 382.678 274.744 382.29V378.081C274.744 377.692 275.058 377.377 275.447 377.377H279.192V373.632C279.192 373.244 279.507 372.929 279.896 372.929H284.105C284.493 372.929 284.808 373.244 284.808 373.632V377.377H288.553C288.942 377.377 289.256 377.692 289.256 378.081Z" fill="#FF6769"/>
<path d="M289.256 378.081V382.29C289.256 382.678 288.942 382.993 288.553 382.993H284.808V386.739C284.808 387.127 284.493 387.442 284.105 387.442H282V372.929H284.105C284.493 372.929 284.808 373.244 284.808 373.632V377.377H288.553C288.942 377.377 289.256 377.692 289.256 378.081Z" fill="#FF0C6C"/>
<path d="M299.698 378.03C299.491 378.239 299.218 378.345 298.946 378.345C298.678 378.345 298.412 378.244 298.207 378.042L282.901 363.001C282.653 362.756 282.326 362.634 282 362.634V360.528C282.862 360.528 283.724 360.851 284.38 361.496L299.685 376.538C300.1 376.946 300.106 377.614 299.698 378.03Z" fill="#5A5A5A"/>
</g>
<path d="M75.9421 361.615L74.788 362.465L76.1873 365.882L79.0339 368.235L80.1879 367.386L75.9421 361.615Z" fill="#E1EBF0"/>
<path d="M73.6337 363.314L75.033 366.731L77.8796 369.084L79.0336 368.235L74.7877 362.464L73.6337 363.314Z" fill="#FFF5F5"/>
<path d="M88.4206 380.991L89.5746 380.142L85.3287 374.372L84.1747 375.221L85.574 378.638L88.4206 380.991Z" fill="#B4D2D7"/>
<path d="M83.0204 376.07L84.4197 379.488L87.2663 381.84L88.4204 380.991L84.1745 375.221L83.0204 376.07Z" fill="#E1EBF0"/>
<path d="M84.0799 384.185L87.2666 381.84L83.0207 376.07L81.7342 377.017C80.8285 376.11 79.8756 375.019 78.9116 373.709L76.4011 374.441L74.9555 376.62C79.6488 382.998 84.0799 384.185 84.0799 384.185Z" fill="#C50048"/>
<path d="M76.5934 370.03L77.8799 369.084L73.634 363.314L70.4472 365.658C70.4472 365.658 70.2621 370.242 74.9554 376.62C74.9554 376.62 74.9555 376.62 74.9555 376.62L78.9116 373.709C78.9116 373.709 78.9116 373.709 78.9115 373.709C77.9475 372.399 77.1897 371.165 76.5934 370.03Z" fill="#FF415B"/>
<path d="M92.5543 363.668L88.0541 365.864L82.9766 370.716L82.9763 370.718L87.8463 371.459C90.536 371.869 93.0482 370.02 93.4576 367.33C93.6623 365.985 93.3021 364.684 92.5543 363.668Z" fill="#E1EBF0"/>
<path d="M89.3286 361.719C86.6389 361.31 84.1267 363.158 83.7173 365.848L82.9765 370.716L92.5542 363.668C91.807 362.654 90.6728 361.924 89.3286 361.719V361.719Z" fill="#FFF5F5"/>
<path d="M89.3555 366.022L88.3204 366.226L87.8179 367.154L87.8201 367.154L87.5262 369.085L88.8586 369.288L89.1524 367.357L91.0831 367.651L91.2859 366.318L89.3552 366.025L89.3555 366.022Z" fill="#00AA95"/>
<path d="M89.6488 364.094L88.3165 363.891L88.0227 365.822L86.0919 365.528L85.8892 366.86L87.8178 367.154L89.3554 366.022L89.6488 364.094Z" fill="#00CC76"/>
<path d="M121.718 366H119.605V394.852L121.718 389.934C122.88 389.934 123.831 388.828 123.831 387.475V368.459C123.831 367.107 122.88 366 121.718 366Z" fill="#3D5168"/>
<path d="M121.718 368.459C121.718 367.107 120.768 366 119.606 366H97.2816C96.1196 366 95.1689 367.107 95.1689 368.459V387.475C95.1689 388.828 96.1196 389.934 97.2816 389.934L109.5 394.852L119.606 389.934C120.768 389.934 121.718 388.828 121.718 387.475L116.437 377.967L121.718 368.459Z" fill="#57697D"/>
<path d="M122.594 394.853V401H124.887C126.054 401 127 399.899 127 398.541L122.594 394.853Z" fill="#3D5168"/>
<path d="M97.5335 396.082L92 398.541C92 399.899 92.9458 401 94.1127 401H105.803L109.5 397.076L113.197 401H122.594C123.761 401 124.707 399.899 124.707 398.541V396.082H97.5335Z" fill="#57697D"/>
<path d="M105.803 396.082H113.197V401H105.803V396.082Z" fill="#A6B0BD"/>
<path d="M124.38 391.425C124.047 390.521 123.283 389.935 122.438 389.935H120.145L124.707 398.541H127L124.38 391.425Z" fill="#A6B0BD"/>
<path d="M122.087 391.425L122.438 392.394L120.783 393.621L123.348 394.853L124.707 398.541H92L94.6204 391.425C94.9528 390.521 95.7169 389.935 96.562 389.935H120.145C120.99 389.935 121.754 390.521 122.087 391.425Z" fill="#C0C8D2"/>
<path d="M119.606 368.459L113.62 377.967L119.606 387.475H121.718V368.459H119.606Z" fill="#1E8AFF"/>
<path d="M97.2817 368.459H119.606V387.475H97.2817V368.459Z" fill="#54A5FF"/>
<path d="M123.348 394.853L122.438 392.394H96.5622L95.6567 394.853H123.348Z" fill="#57697D"/>
<path d="M300.271 739.356C298.043 739.356 295.837 739.703 293.779 740.376C291.72 741.049 289.85 742.035 288.274 743.279C285.092 745.791 283.305 749.197 283.305 752.749C283.305 756.301 285.092 759.708 288.274 762.219C289.85 763.463 291.72 764.45 293.779 765.123C295.837 765.796 298.043 766.142 300.271 766.142C304.771 766.142 309.087 764.731 312.269 762.219C315.451 759.708 317.238 756.301 317.238 752.749C317.238 750.991 316.799 749.249 315.947 747.624C315.094 745.999 313.844 744.523 312.269 743.279C310.693 742.035 308.823 741.049 306.764 740.376C304.706 739.703 302.5 739.356 300.271 739.356ZM291.907 761.16C292.636 759.955 297.082 758.776 300.271 758.776C303.461 758.776 307.907 759.955 308.636 761.16C306.26 762.655 303.31 763.467 300.271 763.464C297.116 763.464 294.214 762.606 291.907 761.16ZM311.062 759.218C308.636 756.888 302.749 756.098 300.271 756.098C297.794 756.098 291.907 756.888 289.481 759.218C287.676 757.363 286.697 755.089 286.698 752.749C286.698 746.843 292.789 742.035 300.271 742.035C307.754 742.035 313.845 746.843 313.845 752.749C313.845 755.187 312.793 757.437 311.062 759.218ZM300.271 744.714C296.98 744.714 294.333 746.803 294.333 749.401C294.333 751.999 296.98 754.089 300.271 754.089C303.563 754.089 306.21 751.999 306.21 749.401C306.21 746.803 303.563 744.714 300.271 744.714ZM300.271 751.41C299.596 751.41 298.949 751.198 298.472 750.822C297.995 750.445 297.726 749.934 297.726 749.401C297.726 748.868 297.995 748.357 298.472 747.981C298.949 747.604 299.596 747.392 300.271 747.392C300.946 747.392 301.594 747.604 302.071 747.981C302.548 748.357 302.816 748.868 302.816 749.401C302.816 749.934 302.548 750.445 302.071 750.822C301.594 751.198 300.946 751.41 300.271 751.41Z" fill="black"/>
<path d="M186.273 765.25V755.166H194.5V765.25H204.783V751.805H210.952L190.387 736.679L169.821 751.805H175.991V765.25H186.273Z" fill="black"/>
<path d="M278.558 771.957V781.821H280.089V778.451H282.373C284.307 778.451 285.674 777.125 285.674 775.225C285.674 773.283 284.348 771.957 282.42 771.957H278.558ZM280.089 773.249H282.017C283.364 773.249 284.109 773.946 284.109 775.225C284.109 776.462 283.336 777.166 282.017 777.166H280.089V773.249ZM287.479 781.821H288.949V777.385C288.949 776.339 289.735 775.621 290.849 775.621C291.109 775.621 291.546 775.669 291.669 775.703V774.322C291.512 774.288 291.232 774.268 291.013 774.268C290.042 774.268 289.215 774.794 289.003 775.525H288.894V774.397H287.479V781.821ZM296.038 781.965C298.211 781.965 299.544 780.509 299.544 778.109C299.544 775.71 298.205 774.254 296.038 774.254C293.864 774.254 292.524 775.717 292.524 778.109C292.524 780.509 293.857 781.965 296.038 781.965ZM296.038 780.714C294.759 780.714 294.042 779.764 294.042 778.109C294.042 776.455 294.759 775.498 296.038 775.498C297.309 775.498 298.034 776.455 298.034 778.109C298.034 779.757 297.309 780.714 296.038 780.714ZM301.841 781.821H303.311V775.594H304.952V774.418H303.291V773.687C303.291 772.935 303.625 772.559 304.446 772.559C304.678 772.559 304.876 772.572 305.013 772.593V771.485C304.76 771.444 304.473 771.417 304.138 771.417C302.593 771.417 301.841 772.142 301.841 773.618V774.418H300.618V775.594H301.841V781.821ZM307.378 773.071C307.891 773.071 308.308 772.654 308.308 772.148C308.308 771.636 307.891 771.219 307.378 771.219C306.866 771.219 306.449 771.636 306.449 772.148C306.449 772.654 306.866 773.071 307.378 773.071ZM306.647 781.821H308.11V774.397H306.647V781.821ZM310.338 781.821H311.808V771.485H310.338V781.821ZM318.897 779.832C318.624 780.434 318.015 780.762 317.126 780.762C315.951 780.762 315.192 779.914 315.144 778.567V778.499H320.401V777.993C320.401 775.669 319.15 774.254 317.079 774.254C314.98 774.254 313.647 775.765 313.647 778.123C313.647 780.495 314.953 781.965 317.085 781.965C318.788 781.965 319.991 781.145 320.312 779.832H318.897ZM317.072 775.45C318.159 775.45 318.87 776.236 318.904 777.439H315.144C315.226 776.243 315.985 775.45 317.072 775.45Z" fill="black"/>
<path d="M181.915 781.821V771.957H180.391V776.127H175.325V771.957H173.794V781.821H175.325V777.453H180.391V781.821H181.915ZM186.803 781.965C188.977 781.965 190.31 780.509 190.31 778.109C190.31 775.71 188.97 774.254 186.803 774.254C184.629 774.254 183.29 775.717 183.29 778.109C183.29 780.509 184.623 781.965 186.803 781.965ZM186.803 780.714C185.525 780.714 184.807 779.764 184.807 778.109C184.807 776.455 185.525 775.498 186.803 775.498C188.075 775.498 188.799 776.455 188.799 778.109C188.799 779.757 188.075 780.714 186.803 780.714ZM191.521 781.821H192.99V777.262C192.99 776.291 193.667 775.532 194.563 775.532C195.438 775.532 195.998 776.059 195.998 776.906V781.821H197.441V777.125C197.441 776.229 198.063 775.532 199.013 775.532C199.977 775.532 200.455 776.031 200.455 777.057V781.821H201.925V776.701C201.925 775.156 201.05 774.254 199.546 774.254C198.514 774.254 197.659 774.78 197.283 775.58H197.167C196.839 774.78 196.135 774.254 195.116 774.254C194.125 774.254 193.373 774.746 193.045 775.58H192.936V774.397H191.521V781.821ZM208.31 779.832C208.037 780.434 207.428 780.762 206.54 780.762C205.364 780.762 204.605 779.914 204.557 778.567V778.499H209.814V777.993C209.814 775.669 208.563 774.254 206.492 774.254C204.393 774.254 203.06 775.765 203.06 778.123C203.06 780.495 204.366 781.965 206.499 781.965C208.201 781.965 209.404 781.145 209.725 779.832H208.31ZM206.485 775.45C207.572 775.45 208.283 776.236 208.317 777.439H204.557C204.639 776.243 205.398 775.45 206.485 775.45Z" fill="black"/>
<path d="M61.8708 782V772.136H60.0798L56.9353 779.854H56.8191L53.6814 772.136H51.8903V782H53.3122V774.774H53.4079L56.2995 781.822H57.4616L60.3532 774.774H60.4489V782H61.8708ZM64.9128 784.693C66.4304 784.693 67.1345 784.126 67.7702 782.342L70.5456 774.576H68.987L67.1276 780.523H67.0114L65.1452 774.576H63.5456L66.239 782.021L66.1296 782.403C65.8767 783.189 65.4802 783.483 64.7829 783.483C64.6462 783.483 64.4206 783.477 64.3044 783.456V784.659C64.4411 784.68 64.7898 784.693 64.9128 784.693ZM80.0817 782V773.455H83.1784V772.136H75.447V773.455H78.5505V782H80.0817ZM83.9441 782H85.4138V777.563C85.4138 776.518 86.1999 775.8 87.3142 775.8C87.5739 775.8 88.0114 775.848 88.1345 775.882V774.501C87.9773 774.467 87.697 774.446 87.4782 774.446C86.5075 774.446 85.6804 774.973 85.4685 775.704H85.3591V774.576H83.9441V782ZM91.5525 782.123C92.53 782.123 93.3435 781.699 93.7878 780.947H93.904V782H95.3191V776.921C95.3191 775.362 94.2663 774.433 92.4001 774.433C90.7116 774.433 89.5085 775.246 89.3581 776.497H90.78C90.9441 775.957 91.5114 775.649 92.3317 775.649C93.3366 775.649 93.8562 776.107 93.8562 776.921V777.57L91.8396 777.693C90.0691 777.803 89.071 778.575 89.071 779.908C89.071 781.262 90.1169 782.123 91.5525 782.123ZM91.9284 780.94C91.1286 780.94 90.5476 780.537 90.5476 779.847C90.5476 779.17 91.0124 778.808 92.0378 778.739L93.8562 778.616V779.259C93.8562 780.216 93.0359 780.94 91.9284 780.94ZM103.714 776.962C103.522 775.52 102.394 774.433 100.528 774.433C98.361 774.433 97.0417 775.902 97.0417 778.261C97.0417 780.667 98.3679 782.144 100.535 782.144C102.374 782.144 103.522 781.111 103.714 779.648H102.285C102.093 780.455 101.458 780.893 100.528 780.893C99.3044 780.893 98.5456 779.901 98.5456 778.261C98.5456 776.654 99.2976 775.684 100.528 775.684C101.512 775.684 102.114 776.237 102.285 776.962H103.714ZM107.05 777.707H106.933V771.664H105.464V782H106.933V779.3L107.583 778.678L110.139 782H111.944L108.676 777.755L111.739 774.576H110.003L107.05 777.707ZM117.796 780.011C117.522 780.612 116.914 780.94 116.025 780.94C114.849 780.94 114.091 780.093 114.043 778.746V778.678H119.3V778.172C119.3 775.848 118.049 774.433 115.977 774.433C113.879 774.433 112.546 775.943 112.546 778.302C112.546 780.674 113.851 782.144 115.984 782.144C117.686 782.144 118.889 781.323 119.211 780.011H117.796ZM115.97 775.629C117.057 775.629 117.768 776.415 117.802 777.618H114.043C114.125 776.422 114.884 775.629 115.97 775.629ZM121.063 782H122.533V777.563C122.533 776.518 123.319 775.8 124.433 775.8C124.693 775.8 125.131 775.848 125.254 775.882V774.501C125.096 774.467 124.816 774.446 124.597 774.446C123.627 774.446 122.8 774.973 122.588 775.704H122.478V774.576H121.063V782Z" fill="black"/>
<path d="M102.879 751.439C102.879 759.966 95.966 766.879 87.4395 766.879C78.9129 766.879 72 759.966 72 751.439C72 742.913 78.9129 736 87.4395 736C95.966 736 102.879 742.913 102.879 751.439Z" fill="black"/>
<path d="M83.2957 748.292C82.9969 748.292 82.7578 748.531 82.7578 748.83C82.7578 749.129 82.9969 749.368 83.2957 749.368C83.5945 749.368 83.8336 749.129 83.8336 748.83C83.8336 748.538 83.5945 748.292 83.2957 748.292Z" fill="white"/>
<path d="M92.1214 748.704H84.5112V748.963H92.1214V748.704Z" fill="white"/>
<path d="M83.2957 750.085C82.9969 750.085 82.7578 750.324 82.7578 750.623C82.7578 750.922 82.9969 751.161 83.2957 751.161C83.5945 751.161 83.8336 750.922 83.8336 750.623C83.8336 750.324 83.5945 750.085 83.2957 750.085Z" fill="white"/>
<path d="M92.1214 750.49H84.5112V750.749H92.1214V750.49Z" fill="white"/>
<path d="M83.2957 751.878C82.9969 751.878 82.7578 752.117 82.7578 752.416C82.7578 752.715 82.9969 752.954 83.2957 752.954C83.5945 752.954 83.8336 752.715 83.8336 752.416C83.8336 752.117 83.5945 751.878 83.2957 751.878Z" fill="white"/>
<path d="M92.1214 752.283H84.5112V752.542H92.1214V752.283Z" fill="white"/>
<path d="M83.2957 753.671C82.9969 753.671 82.7578 753.91 82.7578 754.209C82.7578 754.508 82.9969 754.747 83.2957 754.747C83.5945 754.747 83.8336 754.508 83.8336 754.209C83.8336 753.91 83.5945 753.671 83.2957 753.671Z" fill="white"/>
<path d="M92.1214 754.076H84.5112V754.335H92.1214V754.076Z" fill="white"/>
<path d="M83.2957 755.457C82.9969 755.457 82.7578 755.696 82.7578 755.995C82.7578 756.294 82.9969 756.533 83.2957 756.533C83.5945 756.533 83.8336 756.294 83.8336 755.995C83.8336 755.696 83.5945 755.457 83.2957 755.457Z" fill="white"/>
<path d="M92.1214 755.862H84.5112V756.121H92.1214V755.862Z" fill="white"/>
<path d="M93.3829 743.737H92.938H90.5274V741.791H84.3517V743.737H81.9411H81.8149H81.4962C80.9185 743.737 80.4536 744.202 80.4536 744.779V760.039C80.4536 760.617 80.9185 761.082 81.4962 761.082H93.3895C93.9673 761.082 94.4321 760.617 94.4321 760.039V744.786C94.4321 744.208 93.9673 743.737 93.3829 743.737ZM85.1884 742.561H89.6907V743.737H85.1884V742.561ZM92.938 755.504V756.513V757.994H81.9411V756.513V755.504V744.812H83.0567H84.3517H90.5274H91.8224H92.938V755.504Z" fill="white"/>
<rect x="211" y="630" width="135" height="32" rx="13" fill="#C42B2B"/>
<path d="M249.904 651.264C252.343 651.264 254.13 649.821 254.379 647.682H252.518C252.262 648.869 251.244 649.623 249.904 649.623C248.102 649.623 246.981 648.122 246.981 645.712C246.981 643.31 248.102 641.808 249.896 641.808C251.229 641.808 252.247 642.636 252.511 643.91H254.371C254.152 641.72 252.299 640.167 249.896 640.167C246.901 640.167 245.048 642.284 245.048 645.719C245.048 649.14 246.908 651.264 249.904 651.264ZM260.047 651.161C262.442 651.161 263.9 649.594 263.9 646.994C263.9 644.408 262.435 642.841 260.047 642.841C257.667 642.841 256.195 644.416 256.195 646.994C256.195 649.594 257.645 651.161 260.047 651.161ZM260.047 649.674C258.78 649.674 258.055 648.693 258.055 647.001C258.055 645.309 258.78 644.328 260.047 644.328C261.307 644.328 262.032 645.309 262.032 647.001C262.032 648.693 261.314 649.674 260.047 649.674ZM266.031 651H267.847V646.334C267.847 645.133 268.529 644.379 269.613 644.379C270.718 644.379 271.231 645.001 271.231 646.247V651H273.048V645.822C273.048 643.917 272.073 642.841 270.286 642.841C269.092 642.841 268.287 643.383 267.906 644.276H267.781V642.995H266.031V651ZM276.079 641.032V643.046H274.812V644.459H276.079V648.876C276.079 650.421 276.812 651.037 278.65 651.037C279.002 651.037 279.339 651.007 279.602 650.956V649.564C279.383 649.586 279.244 649.601 278.987 649.601C278.225 649.601 277.889 649.242 277.889 648.444V644.459H279.602V643.046H277.889V641.032H276.079ZM282.642 641.654C283.242 641.654 283.733 641.178 283.733 640.578C283.733 639.984 283.242 639.501 282.642 639.501C282.048 639.501 281.558 639.984 281.558 640.578C281.558 641.178 282.048 641.654 282.642 641.654ZM281.741 651H283.55V642.995H281.741V651ZM286.106 651H287.922V646.334C287.922 645.133 288.603 644.379 289.687 644.379C290.793 644.379 291.306 645.001 291.306 646.247V651H293.122V645.822C293.122 643.917 292.148 642.841 290.361 642.841C289.167 642.841 288.362 643.383 287.981 644.276H287.856V642.995H286.106V651ZM302.548 642.995H300.732V647.66C300.732 648.869 300.087 649.601 298.908 649.601C297.824 649.601 297.319 649 297.319 647.755V642.995H295.502V648.195C295.502 650.07 296.528 651.161 298.278 651.161C299.501 651.161 300.285 650.641 300.673 649.726H300.798V651H302.548V642.995ZM310.297 648.81C310.033 649.411 309.411 649.748 308.51 649.748C307.316 649.748 306.547 648.898 306.503 647.543V647.448H312.099V646.869C312.099 644.357 310.729 642.841 308.444 642.841C306.122 642.841 304.679 644.459 304.679 647.03C304.679 649.594 306.1 651.161 308.459 651.161C310.348 651.161 311.689 650.253 312.018 648.81H310.297ZM308.437 644.254C309.528 644.254 310.246 645.023 310.282 646.239H306.51C306.591 645.038 307.353 644.254 308.437 644.254Z" fill="#F5F0F0"/>
<path d="M30.5 65.5002H48.5V63.1668H30.5V65.5002ZM30.5 70.1668H48.5V67.8335H30.5V70.1668ZM30.5 60.8335H48.5V58.5002H30.5V60.8335ZM30.5 53.8335V56.1668H48.5V53.8335H30.5Z" fill="black"/>
<path d="M136.141 70V48.8623H131.014L125.008 64.0381H124.891L118.885 48.8623H113.758V70H117.698V55.7324H117.815L123.558 70H126.341L132.083 55.7324H132.2V70H136.141ZM141.312 75.8154C145.311 75.8154 147.288 74.3652 148.621 70.3369L154.026 54.2969H149.515L146.189 66.5723H146.102L142.762 54.2969H138.074L143.538 70C143.553 70.0732 143.392 70.6885 143.392 70.7617C143.099 72.0068 142.322 72.5049 140.77 72.5049C140.608 72.5049 139.832 72.4902 139.686 72.4609V75.7715C139.832 75.8008 141.15 75.8154 141.312 75.8154ZM155.169 63.9648C155.301 67.9492 158.655 70.3516 163.694 70.3516C168.982 70.3516 172.22 67.7441 172.22 63.6133C172.22 60.4053 170.271 58.6035 165.804 57.71L163.562 57.2559C161.072 56.7578 160.047 55.9521 160.047 54.6484C160.047 53.0957 161.512 52.0703 163.694 52.0703C165.921 52.0703 167.488 53.1543 167.635 54.9561H171.81C171.736 51.0742 168.631 48.4961 163.694 48.4961C158.992 48.4961 155.623 51.0596 155.623 54.9268C155.623 58.0762 157.688 60.0977 161.907 60.9326L164.134 61.3721C166.785 61.9141 167.781 62.7051 167.781 64.0967C167.781 65.6494 166.17 66.792 163.812 66.792C161.409 66.792 159.622 65.7373 159.344 63.9648H155.169ZM184.964 65.1953C184.568 66.3965 183.367 67.1729 181.8 67.1729C179.617 67.1729 178.196 65.6348 178.196 63.3936V63.1299H189.021V61.8262C189.021 57.0508 186.136 53.96 181.565 53.96C176.922 53.96 173.992 57.2119 173.992 62.2217C173.992 67.2461 176.893 70.3369 181.727 70.3369C185.608 70.3369 188.421 68.2715 188.89 65.1953H184.964ZM181.609 57.124C183.514 57.124 184.817 58.501 184.905 60.5078H178.24C178.387 58.5449 179.734 57.124 181.609 57.124ZM191.233 70H195.511V60.9912C195.511 58.9551 196.727 57.5488 198.646 57.5488C200.564 57.5488 201.531 58.7207 201.531 60.7715V70H205.809V59.8779C205.809 56.2012 203.846 54.0039 200.359 54.0039C197.942 54.0039 196.287 55.1465 195.452 57.0947H195.364V54.2969H191.233V70ZM208.255 58.9111C208.255 61.2695 209.793 62.793 212.825 63.4375L215.506 63.9941C217.044 64.3457 217.586 64.8145 217.586 65.6494C217.586 66.6748 216.59 67.334 214.979 67.334C213.279 67.334 212.298 66.6016 212.034 65.2246H207.859C208.138 68.3154 210.643 70.3369 214.979 70.3369C219.021 70.3369 221.849 68.3008 221.849 65.21C221.849 62.9102 220.501 61.6211 217.22 60.9326L214.539 60.3613C212.957 60.0244 212.371 59.4824 212.371 58.6768C212.371 57.6367 213.353 56.9629 214.832 56.9629C216.414 56.9629 217.366 57.8271 217.498 59.1016H221.438C221.351 56.0254 218.86 53.96 214.832 53.96C210.833 53.96 208.255 55.9229 208.255 58.9111Z" fill="black"/>
<path d="M238.167 70H242.869L235.516 48.8623H230.315L222.977 70H227.518L229.129 64.873H236.556L238.167 70ZM232.791 52.9053H232.894L235.604 61.5625H230.081L232.791 52.9053ZM249.461 62.2656H253.006L256.946 70H261.956L257.503 61.6064C259.935 60.6543 261.341 58.3105 261.341 55.6006C261.341 51.4258 258.558 48.8623 253.694 48.8623H245.037V70H249.461V62.2656ZM249.461 52.3193H253.226C255.423 52.3193 256.8 53.6377 256.8 55.6885C256.8 57.7832 255.496 59.0576 253.27 59.0576H249.461V52.3193Z" fill="#F90F0F"/>
<path d="M25.8476 31H27.4882V20.4312H25.8549L23.0717 22.4087V24.02L25.723 22.123H25.8476V31ZM30.2365 23.4927H31.7892C31.7892 22.3208 32.5729 21.5298 33.7667 21.5298C34.9386 21.5298 35.6344 22.3135 35.6344 23.3389C35.6344 24.1958 35.2829 24.7231 33.9425 26.1221L30.3244 29.8867V31H37.4435V29.6011H32.5656V29.4766L34.8947 27.1328C36.7477 25.2725 37.2824 24.4009 37.2824 23.1777C37.2824 21.4419 35.8541 20.1748 33.8693 20.1748C31.7379 20.1748 30.2365 21.5518 30.2365 23.4927ZM40.58 24.02C41.2025 24.02 41.6566 23.5513 41.6566 22.9653C41.6566 22.3647 41.2025 21.9033 40.58 21.9033C39.9647 21.9033 39.5033 22.3647 39.5033 22.9653C39.5033 23.5513 39.9647 24.02 40.58 24.02ZM40.58 29.5205C41.2025 29.5205 41.6566 29.0518 41.6566 28.4585C41.6566 27.8652 41.2025 27.4038 40.58 27.4038C39.9647 27.4038 39.5033 27.8652 39.5033 28.4585C39.5033 29.0518 39.9647 29.5205 40.58 29.5205ZM43.819 23.4927H45.3717C45.3717 22.3208 46.1554 21.5298 47.3492 21.5298C48.5211 21.5298 49.2169 22.3135 49.2169 23.3389C49.2169 24.1958 48.8654 24.7231 47.525 26.1221L43.9069 29.8867V31H51.026V29.6011H46.1481V29.4766L48.4772 27.1328C50.3302 25.2725 50.8649 24.4009 50.8649 23.1777C50.8649 21.4419 49.4366 20.1748 47.4518 20.1748C45.3204 20.1748 43.819 21.5518 43.819 23.4927ZM52.8514 23.4927H54.4042C54.4042 22.3208 55.1879 21.5298 56.3817 21.5298C57.5536 21.5298 58.2494 22.3135 58.2494 23.3389C58.2494 24.1958 57.8978 24.7231 56.5575 26.1221L52.9393 29.8867V31H60.0585V29.6011H55.1805V29.4766L57.5096 27.1328C59.3627 25.2725 59.8973 24.4009 59.8973 23.1777C59.8973 21.4419 58.4691 20.1748 56.4842 20.1748C54.3529 20.1748 52.8514 21.5518 52.8514 23.4927Z" fill="black"/>
<path opacity="0.35" fill-rule="evenodd" clip-rule="evenodd" d="M338.5 20.5H357.5C358.881 20.5 360 21.6193 360 23V29.5C360 30.8807 358.881 32 357.5 32H338.5C337.119 32 336 30.8807 336 29.5V23C336 21.6193 337.119 20.5 338.5 20.5ZM338.5 21.5C337.672 21.5 337 22.1716 337 23V29.5C337 30.3284 337.672 31 338.5 31H357.5C358.328 31 359 30.3284 359 29.5V23C359 22.1716 358.328 21.5 357.5 21.5H338.5Z" fill="black"/>
<path opacity="0.4" fill-rule="evenodd" clip-rule="evenodd" d="M361 23.7998C361.89 24.255 362.5 25.1813 362.5 26.2499C362.5 27.3186 361.89 28.2449 361 28.7001V23.7998Z" fill="black"/>
<path fill-rule="evenodd" clip-rule="evenodd" d="M339 22.5H357C357.552 22.5 358 22.9477 358 23.5V29C358 29.5523 357.552 30 357 30H339C338.448 30 338 29.5523 338 29V23.5C338 22.9477 338.448 22.5 339 22.5Z" fill="black"/>
<path fill-rule="evenodd" clip-rule="evenodd" d="M329.983 23.5229C328.072 21.8906 325.657 21 323.133 21C320.601 21 318.18 21.8959 316.266 23.5371L316.104 23.6765C315.972 23.7892 315.965 23.9895 316.087 24.1118L317.214 25.2356C317.324 25.3447 317.498 25.3521 317.617 25.2527L317.756 25.1354C319.263 23.8694 321.155 23.1804 323.133 23.1804C325.104 23.1804 326.989 23.8647 328.494 25.1228L328.634 25.2395C328.752 25.3385 328.926 25.3308 329.036 25.2219L330.163 24.098C330.285 23.9756 330.278 23.7749 330.146 23.6623L329.983 23.5229ZM323.133 24.4698C324.724 24.4698 326.251 24.9975 327.495 25.9749L327.671 26.113C327.811 26.2231 327.824 26.4306 327.697 26.5564L326.567 27.6841C326.462 27.7884 326.297 27.8003 326.178 27.7122L326.04 27.6098C325.2 26.9852 324.186 26.6501 323.133 26.6501C322.073 26.6501 321.053 26.9893 320.21 27.6211L320.072 27.7245C319.954 27.8133 319.787 27.8016 319.683 27.697L318.552 26.5698C318.426 26.4442 318.438 26.2373 318.578 26.1269L318.753 25.9887C320 25.0027 321.534 24.4698 323.133 24.4698ZM323.133 27.9396C323.772 27.9396 324.394 28.1076 324.941 28.4281L325.163 28.5579C325.331 28.6563 325.361 28.8867 325.223 29.0242L323.329 30.913C323.212 31.029 323.024 31.029 322.907 30.913L321.026 29.0363C320.888 28.8994 320.917 28.6702 321.084 28.5711L321.303 28.4406C321.856 28.1121 322.485 27.9396 323.133 27.9396Z" fill="black"/>
<path opacity="0.25" fill-rule="evenodd" clip-rule="evenodd" d="M309.5 21H310.5C311.052 21 311.5 21.4477 311.5 22V30C311.5 30.5523 311.052 31 310.5 31H309.5C308.948 31 308.5 30.5523 308.5 30V22C308.5 21.4477 308.948 21 309.5 21Z" fill="black"/>
<path fill-rule="evenodd" clip-rule="evenodd" d="M306 23H305C304.448 23 304 23.4477 304 24V30C304 30.5523 304.448 31 305 31H306C306.552 31 307 30.5523 307 30V24C307 23.4477 306.552 23 306 23ZM300.5 25H301.5C302.052 25 302.5 25.4477 302.5 26V30C302.5 30.5523 302.052 31 301.5 31H300.5C299.948 31 299.5 30.5523 299.5 30V26C299.5 25.4477 299.948 25 300.5 25ZM296 26.5H297C297.552 26.5 298 26.9477 298 27.5V30C298 30.5523 297.552 31 297 31H296C295.448 31 295 30.5523 295 30V27.5C295 26.9477 295.448 26.5 296 26.5Z" fill="black"/>
<path fill-rule="evenodd" clip-rule="evenodd" d="M70.6782 31.7902L75.2404 21.25L64.7002 25.8122H70.6782V31.7902Z" fill="black"/>
<path d="M45.3332 103.833H31.1348L37.6565 97.3115L35.9998 95.6665L26.6665 105L35.9998 114.333L37.6448 112.688L31.1348 106.167H45.3332V103.833Z" fill="black"/>
<g clip-path="url(#clip3)">
<circle cx="327.5" cy="100.5" r="27.5" fill="#BE2020" fill-opacity="0.83"/>
<path d="M319.847 111L326.951 89.8623H322.132L317.298 106.444H317.195L312.361 89.8623H307.41L314.515 111H319.847ZM340.677 111H345.379L338.025 89.8623H332.825L325.486 111H330.027L331.639 105.873H339.065L340.677 111ZM335.301 93.9053H335.403L338.113 102.562H332.591L335.301 93.9053ZM313.05 147.249C315.013 147.249 316.961 146.268 317.84 144.598H317.928V147H322.059V136.204C322.059 133.04 319.437 130.96 315.408 130.96C311.248 130.96 308.655 133.055 308.494 136.102H312.405C312.61 134.944 313.621 134.153 315.218 134.153C316.829 134.153 317.854 135.003 317.854 136.468V137.508L313.899 137.742C309.988 137.977 307.791 139.632 307.791 142.488C307.791 145.315 310.062 147.249 313.05 147.249ZM314.456 144.158C313.006 144.158 312.039 143.426 312.039 142.254C312.039 141.141 312.947 140.423 314.544 140.306L317.854 140.101V141.243C317.854 142.942 316.316 144.158 314.456 144.158Z" fill="white" fill-opacity="0.65"/>
</g>
</g>
<defs>
<filter id="filter0_d" x="39" y="342" width="135" height="100" filterUnits="userSpaceOnUse" color-interpolation-filters="sRGB">
<feFlood flood-opacity="0" result="BackgroundImageFix"/>
<feColorMatrix in="SourceAlpha" type="matrix" values="0 0 0 0 0 0 0 0 0 0 0 0 0 0 0 0 0 0 127 0"/>
<feOffset dy="4"/>
<feGaussianBlur stdDeviation="2.5"/>
<feColorMatrix type="matrix" values="0 0 0 0 0.357014 0 0 0 0 0.562879 0 0 0 0 0.808333 0 0 0 1 0"/>
<feBlend mode="normal" in2="BackgroundImageFix" result="effect1_dropShadow"/>
<feBlend mode="normal" in="SourceGraphic" in2="effect1_dropShadow" result="shape"/>
</filter>
<filter id="filter1_d" x="39" y="467" width="135" height="100" filterUnits="userSpaceOnUse" color-interpolation-filters="sRGB">
<feFlood flood-opacity="0" result="BackgroundImageFix"/>
<feColorMatrix in="SourceAlpha" type="matrix" values="0 0 0 0 0 0 0 0 0 0 0 0 0 0 0 0 0 0 127 0"/>
<feOffset dy="4"/>
<feGaussianBlur stdDeviation="2.5"/>
<feColorMatrix type="matrix" values="0 0 0 0 0.357014 0 0 0 0 0.562879 0 0 0 0 0.808333 0 0 0 1 0"/>
<feBlend mode="normal" in2="BackgroundImageFix" result="effect1_dropShadow"/>
<feBlend mode="normal" in="SourceGraphic" in2="effect1_dropShadow" result="shape"/>
</filter>
<filter id="filter2_d" x="213" y="341" width="137" height="102" filterUnits="userSpaceOnUse" color-interpolation-filters="sRGB">
<feFlood flood-opacity="0" result="BackgroundImageFix"/>
<feColorMatrix in="SourceAlpha" type="matrix" values="0 0 0 0 0 0 0 0 0 0 0 0 0 0 0 0 0 0 127 0"/>
<feOffset dy="4"/>
<feGaussianBlur stdDeviation="2.5"/>
<feColorMatrix type="matrix" values="0 0 0 0 0.357014 0 0 0 0 0.562879 0 0 0 0 0.808333 0 0 0 1 0"/>
<feBlend mode="normal" in2="BackgroundImageFix" result="effect1_dropShadow"/>
<feBlend mode="normal" in="SourceGraphic" in2="effect1_dropShadow" result="shape"/>
</filter>
<filter id="filter3_d" x="214" y="467" width="135" height="100" filterUnits="userSpaceOnUse" color-interpolation-filters="sRGB">
<feFlood flood-opacity="0" result="BackgroundImageFix"/>
<feColorMatrix in="SourceAlpha" type="matrix" values="0 0 0 0 0 0 0 0 0 0 0 0 0 0 0 0 0 0 127 0"/>
<feOffset dy="4"/>
<feGaussianBlur stdDeviation="2.5"/>
<feColorMatrix type="matrix" values="0 0 0 0 0.357014 0 0 0 0 0.562879 0 0 0 0 0.808333 0 0 0 1 0"/>
<feBlend mode="normal" in2="BackgroundImageFix" result="effect1_dropShadow"/>
<feBlend mode="normal" in="SourceGraphic" in2="effect1_dropShadow" result="shape"/>
</filter>
<filter id="filter4_d" x="214" y="214" width="135" height="100" filterUnits="userSpaceOnUse" color-interpolation-filters="sRGB">
<feFlood flood-opacity="0" result="BackgroundImageFix"/>
<feColorMatrix in="SourceAlpha" type="matrix" values="0 0 0 0 0 0 0 0 0 0 0 0 0 0 0 0 0 0 127 0"/>
<feOffset dy="4"/>
<feGaussianBlur stdDeviation="2.5"/>
<feColorMatrix type="matrix" values="0 0 0 0 0.357014 0 0 0 0 0.562879 0 0 0 0 0.808333 0 0 0 1 0"/>
<feBlend mode="normal" in2="BackgroundImageFix" result="effect1_dropShadow"/>
<feBlend mode="normal" in="SourceGraphic" in2="effect1_dropShadow" result="shape"/>
</filter>
<filter id="filter5_d" x="39" y="214" width="135" height="100" filterUnits="userSpaceOnUse" color-interpolation-filters="sRGB">
<feFlood flood-opacity="0" result="BackgroundImageFix"/>
<feColorMatrix in="SourceAlpha" type="matrix" values="0 0 0 0 0 0 0 0 0 0 0 0 0 0 0 0 0 0 127 0"/>
<feOffset dy="4"/>
<feGaussianBlur stdDeviation="2.5"/>
<feColorMatrix type="matrix" values="0 0 0 0 0.357014 0 0 0 0 0.562879 0 0 0 0 0.808333 0 0 0 1 0"/>
<feBlend mode="normal" in2="BackgroundImageFix" result="effect1_dropShadow"/>
<feBlend mode="normal" in="SourceGraphic" in2="effect1_dropShadow" result="shape"/>
</filter>
<clipPath id="clip0">
<rect width="375" height="812" fill="white"/>
</clipPath>
<clipPath id="clip1">
<rect width="35" height="35" fill="white" transform="translate(86 234)"/>
</clipPath>
<clipPath id="clip2">
<rect width="36" height="36" fill="white" transform="translate(264 359)"/>
</clipPath>
<clipPath id="clip3">
<rect width="73" height="65" fill="white" transform="translate(300 73)"/>
</clipPath>
</defs>
</svg>
