<svg width="375" height="812" viewBox="0 0 375 812" fill="none" xmlns="http://www.w3.org/2000/svg">
<g clip-path="url(#clip0)">
<rect width="375" height="812" fill="white"/>
<ellipse cx="378" cy="441" rx="184" ry="193" fill="#A30D12"/>
<path d="M294.271 743.357C292.043 743.357 289.837 743.704 287.779 744.377C285.72 745.05 283.85 746.036 282.274 747.28C279.092 749.792 277.305 753.198 277.305 756.75C277.305 760.302 279.092 763.709 282.274 766.22C283.85 767.464 285.72 768.451 287.779 769.124C289.837 769.797 292.043 770.143 294.271 770.143C298.771 770.143 303.087 768.732 306.269 766.22C309.451 763.709 311.238 760.302 311.238 756.75C311.238 754.992 310.799 753.25 309.947 751.625C309.094 750 307.844 748.524 306.269 747.28C304.693 746.036 302.823 745.05 300.764 744.377C298.706 743.704 296.5 743.357 294.271 743.357ZM285.907 765.161C286.636 763.956 291.082 762.777 294.271 762.777C297.461 762.777 301.907 763.956 302.636 765.161C300.26 766.656 297.31 767.468 294.271 767.465C291.116 767.465 288.214 766.607 285.907 765.161ZM305.062 763.219C302.636 760.889 296.749 760.098 294.271 760.098C291.794 760.098 285.907 760.889 283.481 763.219C281.676 761.364 280.697 759.09 280.698 756.75C280.698 750.844 286.789 746.036 294.271 746.036C301.754 746.036 307.845 750.844 307.845 756.75C307.845 759.188 306.793 761.438 305.062 763.219ZM294.271 748.715C290.98 748.715 288.333 750.804 288.333 753.402C288.333 756 290.98 758.09 294.271 758.09C297.563 758.09 300.21 756 300.21 753.402C300.21 750.804 297.563 748.715 294.271 748.715ZM294.271 755.411C293.596 755.411 292.949 755.199 292.472 754.823C291.995 754.446 291.726 753.935 291.726 753.402C291.726 752.869 291.995 752.358 292.472 751.982C292.949 751.605 293.596 751.393 294.271 751.393C294.946 751.393 295.594 751.605 296.071 751.982C296.548 752.358 296.816 752.869 296.816 753.402C296.816 753.935 296.548 754.446 296.071 754.823C295.594 755.199 294.946 755.411 294.271 755.411Z" fill="#828282"/>
<path d="M180.273 769.25V759.166H188.5V769.25H198.783V755.805H204.952L184.387 740.679L163.821 755.805H169.991V769.25H180.273Z" fill="black"/>
<path d="M272.558 775.957V785.821H274.089V782.451H276.373C278.307 782.451 279.674 781.125 279.674 779.225C279.674 777.283 278.348 775.957 276.42 775.957H272.558ZM274.089 777.249H276.017C277.364 777.249 278.109 777.946 278.109 779.225C278.109 780.462 277.336 781.166 276.017 781.166H274.089V777.249ZM281.479 785.821H282.949V781.385C282.949 780.339 283.735 779.621 284.849 779.621C285.109 779.621 285.546 779.669 285.669 779.703V778.322C285.512 778.288 285.232 778.268 285.013 778.268C284.042 778.268 283.215 778.794 283.003 779.525H282.894V778.397H281.479V785.821ZM290.038 785.965C292.211 785.965 293.544 784.509 293.544 782.109C293.544 779.71 292.205 778.254 290.038 778.254C287.864 778.254 286.524 779.717 286.524 782.109C286.524 784.509 287.857 785.965 290.038 785.965ZM290.038 784.714C288.759 784.714 288.042 783.764 288.042 782.109C288.042 780.455 288.759 779.498 290.038 779.498C291.309 779.498 292.034 780.455 292.034 782.109C292.034 783.757 291.309 784.714 290.038 784.714ZM295.841 785.821H297.311V779.594H298.952V778.418H297.291V777.687C297.291 776.935 297.625 776.559 298.446 776.559C298.678 776.559 298.876 776.572 299.013 776.593V775.485C298.76 775.444 298.473 775.417 298.138 775.417C296.593 775.417 295.841 776.142 295.841 777.618V778.418H294.618V779.594H295.841V785.821ZM301.378 777.071C301.891 777.071 302.308 776.654 302.308 776.148C302.308 775.636 301.891 775.219 301.378 775.219C300.866 775.219 300.449 775.636 300.449 776.148C300.449 776.654 300.866 777.071 301.378 777.071ZM300.647 785.821H302.11V778.397H300.647V785.821ZM304.338 785.821H305.808V775.485H304.338V785.821ZM312.897 783.832C312.624 784.434 312.015 784.762 311.126 784.762C309.951 784.762 309.192 783.914 309.144 782.567V782.499H314.401V781.993C314.401 779.669 313.15 778.254 311.079 778.254C308.98 778.254 307.647 779.765 307.647 782.123C307.647 784.495 308.953 785.965 311.085 785.965C312.788 785.965 313.991 785.145 314.312 783.832H312.897ZM311.072 779.45C312.159 779.45 312.87 780.236 312.904 781.439H309.144C309.226 780.243 309.985 779.45 311.072 779.45Z" fill="#828282"/>
<path d="M175.915 785.821V775.957H174.391V780.127H169.325V775.957H167.794V785.821H169.325V781.453H174.391V785.821H175.915ZM180.803 785.965C182.977 785.965 184.31 784.509 184.31 782.109C184.31 779.71 182.97 778.254 180.803 778.254C178.629 778.254 177.29 779.717 177.29 782.109C177.29 784.509 178.623 785.965 180.803 785.965ZM180.803 784.714C179.525 784.714 178.807 783.764 178.807 782.109C178.807 780.455 179.525 779.498 180.803 779.498C182.075 779.498 182.799 780.455 182.799 782.109C182.799 783.757 182.075 784.714 180.803 784.714ZM185.521 785.821H186.99V781.262C186.99 780.291 187.667 779.532 188.563 779.532C189.438 779.532 189.998 780.059 189.998 780.906V785.821H191.441V781.125C191.441 780.229 192.063 779.532 193.013 779.532C193.977 779.532 194.455 780.031 194.455 781.057V785.821H195.925V780.701C195.925 779.156 195.05 778.254 193.546 778.254C192.514 778.254 191.659 778.78 191.283 779.58H191.167C190.839 778.78 190.135 778.254 189.116 778.254C188.125 778.254 187.373 778.746 187.045 779.58H186.936V778.397H185.521V785.821ZM202.31 783.832C202.037 784.434 201.428 784.762 200.54 784.762C199.364 784.762 198.605 783.914 198.557 782.567V782.499H203.814V781.993C203.814 779.669 202.563 778.254 200.492 778.254C198.393 778.254 197.06 779.765 197.06 782.123C197.06 784.495 198.366 785.965 200.499 785.965C202.201 785.965 203.404 785.145 203.725 783.832H202.31ZM200.485 779.45C201.572 779.45 202.283 780.236 202.317 781.439H198.557C198.639 780.243 199.398 779.45 200.485 779.45Z" fill="black"/>
<path d="M55.8708 786V776.136H54.0798L50.9353 783.854H50.8191L47.6814 776.136H45.8903V786H47.3122V778.774H47.4079L50.2995 785.822H51.4616L54.3532 778.774H54.4489V786H55.8708ZM58.9128 788.693C60.4304 788.693 61.1345 788.126 61.7702 786.342L64.5456 778.576H62.987L61.1276 784.523H61.0114L59.1452 778.576H57.5456L60.239 786.021L60.1296 786.403C59.8767 787.189 59.4802 787.483 58.7829 787.483C58.6462 787.483 58.4206 787.477 58.3044 787.456V788.659C58.4411 788.68 58.7898 788.693 58.9128 788.693ZM74.0817 786V777.455H77.1784V776.136H69.447V777.455H72.5505V786H74.0817ZM77.9441 786H79.4138V781.563C79.4138 780.518 80.1999 779.8 81.3142 779.8C81.5739 779.8 82.0114 779.848 82.1345 779.882V778.501C81.9773 778.467 81.697 778.446 81.4782 778.446C80.5075 778.446 79.6804 778.973 79.4685 779.704H79.3591V778.576H77.9441V786ZM85.5525 786.123C86.53 786.123 87.3435 785.699 87.7878 784.947H87.904V786H89.3191V780.921C89.3191 779.362 88.2663 778.433 86.4001 778.433C84.7116 778.433 83.5085 779.246 83.3581 780.497H84.78C84.9441 779.957 85.5114 779.649 86.3317 779.649C87.3366 779.649 87.8562 780.107 87.8562 780.921V781.57L85.8396 781.693C84.0691 781.803 83.071 782.575 83.071 783.908C83.071 785.262 84.1169 786.123 85.5525 786.123ZM85.9284 784.94C85.1286 784.94 84.5476 784.537 84.5476 783.847C84.5476 783.17 85.0124 782.808 86.0378 782.739L87.8562 782.616V783.259C87.8562 784.216 87.0359 784.94 85.9284 784.94ZM97.7136 780.962C97.5222 779.52 96.3942 778.433 94.528 778.433C92.361 778.433 91.0417 779.902 91.0417 782.261C91.0417 784.667 92.3679 786.144 94.5349 786.144C96.3737 786.144 97.5222 785.111 97.7136 783.648H96.2849C96.0935 784.455 95.4577 784.893 94.528 784.893C93.3044 784.893 92.5456 783.901 92.5456 782.261C92.5456 780.654 93.2976 779.684 94.528 779.684C95.5124 779.684 96.114 780.237 96.2849 780.962H97.7136ZM101.05 781.707H100.933V775.664H99.4636V786H100.933V783.3L101.583 782.678L104.139 786H105.944L102.676 781.755L105.739 778.576H104.003L101.05 781.707ZM111.796 784.011C111.522 784.612 110.914 784.94 110.025 784.94C108.849 784.94 108.091 784.093 108.043 782.746V782.678H113.3V782.172C113.3 779.848 112.049 778.433 109.977 778.433C107.879 778.433 106.546 779.943 106.546 782.302C106.546 784.674 107.851 786.144 109.984 786.144C111.686 786.144 112.889 785.323 113.211 784.011H111.796ZM109.97 779.629C111.057 779.629 111.768 780.415 111.802 781.618H108.043C108.125 780.422 108.884 779.629 109.97 779.629ZM115.063 786H116.533V781.563C116.533 780.518 117.319 779.8 118.433 779.8C118.693 779.8 119.131 779.848 119.254 779.882V778.501C119.096 778.467 118.816 778.446 118.597 778.446C117.627 778.446 116.8 778.973 116.588 779.704H116.478V778.576H115.063V786Z" fill="#828282"/>
<path d="M96.8789 755.439C96.8789 763.966 89.966 770.879 81.4395 770.879C72.9129 770.879 66 763.966 66 755.439C66 746.913 72.9129 740 81.4395 740C89.966 740 96.8789 746.913 96.8789 755.439Z" fill="#BDBDBD"/>
<path d="M77.2957 752.292C76.9969 752.292 76.7578 752.531 76.7578 752.829C76.7578 753.128 76.9969 753.367 77.2957 753.367C77.5945 753.367 77.8336 753.128 77.8336 752.829C77.8336 752.537 77.5945 752.292 77.2957 752.292Z" fill="white"/>
<path d="M86.1214 752.704H78.5112V752.963H86.1214V752.704Z" fill="white"/>
<path d="M77.2957 754.084C76.9969 754.084 76.7578 754.324 76.7578 754.622C76.7578 754.921 76.9969 755.16 77.2957 755.16C77.5945 755.16 77.8336 754.921 77.8336 754.622C77.8336 754.324 77.5945 754.084 77.2957 754.084Z" fill="white"/>
<path d="M86.1214 754.49H78.5112V754.749H86.1214V754.49Z" fill="white"/>
<path d="M77.2957 755.877C76.9969 755.877 76.7578 756.117 76.7578 756.415C76.7578 756.714 76.9969 756.953 77.2957 756.953C77.5945 756.953 77.8336 756.714 77.8336 756.415C77.8336 756.117 77.5945 755.877 77.2957 755.877Z" fill="white"/>
<path d="M86.1214 756.283H78.5112V756.542H86.1214V756.283Z" fill="white"/>
<path d="M77.2957 757.67C76.9969 757.67 76.7578 757.909 76.7578 758.208C76.7578 758.507 76.9969 758.746 77.2957 758.746C77.5945 758.746 77.8336 758.507 77.8336 758.208C77.8336 757.909 77.5945 757.67 77.2957 757.67Z" fill="white"/>
<path d="M86.1214 758.076H78.5112V758.335H86.1214V758.076Z" fill="white"/>
<path d="M77.2957 759.457C76.9969 759.457 76.7578 759.696 76.7578 759.995C76.7578 760.294 76.9969 760.533 77.2957 760.533C77.5945 760.533 77.8336 760.294 77.8336 759.995C77.8336 759.696 77.5945 759.457 77.2957 759.457Z" fill="white"/>
<path d="M86.1214 759.862H78.5112V760.121H86.1214V759.862Z" fill="white"/>
<path d="M87.3829 747.736H86.938H84.5274V745.791H78.3517V747.736H75.9411H75.8149H75.4962C74.9185 747.736 74.4536 748.201 74.4536 748.779V764.039C74.4536 764.617 74.9185 765.082 75.4962 765.082H87.3895C87.9673 765.082 88.4321 764.617 88.4321 764.039V748.785C88.4321 748.208 87.9673 747.736 87.3829 747.736ZM79.1884 746.561H83.6907V747.736H79.1884V746.561ZM86.938 759.503V760.513V761.994H75.9411V760.513V759.503V748.812H77.0567H78.3517H84.5274H85.8224H86.938V759.503Z" fill="white"/>
<g filter="url(#filter0_d)">
<rect x="63" y="369" width="247" height="139" rx="5" fill="#1862BA"/>
<path d="M99.6348 475.977C99.7227 478.633 101.959 480.234 105.318 480.234C108.844 480.234 111.002 478.496 111.002 475.742C111.002 473.604 109.703 472.402 106.725 471.807L105.23 471.504C103.57 471.172 102.887 470.635 102.887 469.766C102.887 468.73 103.863 468.047 105.318 468.047C106.803 468.047 107.848 468.77 107.945 469.971H110.729C110.68 467.383 108.609 465.664 105.318 465.664C102.184 465.664 99.9375 467.373 99.9375 469.951C99.9375 472.051 101.314 473.398 104.127 473.955L105.611 474.248C107.379 474.609 108.043 475.137 108.043 476.064C108.043 477.1 106.969 477.861 105.396 477.861C103.795 477.861 102.604 477.158 102.418 475.977H99.6348ZM113.912 483.877C116.578 483.877 117.896 482.91 118.785 480.225L122.389 469.531H119.381L117.164 477.715H117.105L114.879 469.531H111.754L115.396 480C115.406 480.049 115.299 480.459 115.299 480.508C115.104 481.338 114.586 481.67 113.551 481.67C113.443 481.67 112.926 481.66 112.828 481.641V483.848C112.926 483.867 113.805 483.877 113.912 483.877ZM123.443 480H126.295V473.682C126.295 472.51 127.027 471.689 128.111 471.689C129.166 471.689 129.801 472.354 129.801 473.477V480H132.545V473.643C132.545 472.48 133.258 471.689 134.342 471.689C135.445 471.689 136.051 472.354 136.051 473.564V480H138.902V472.852C138.902 470.742 137.525 469.336 135.475 469.336C133.941 469.336 132.691 470.166 132.223 471.484H132.164C131.812 470.117 130.758 469.336 129.244 469.336C127.818 469.336 126.695 470.166 126.256 471.426H126.197V469.531H123.443V480ZM146.822 469.365C145.309 469.365 144.146 470.127 143.58 471.357H143.521V469.531H140.709V483.418H143.561V478.242H143.619C144.176 479.424 145.348 480.166 146.871 480.166C149.488 480.166 151.109 478.135 151.109 474.766C151.109 471.387 149.479 469.365 146.822 469.365ZM145.865 477.871C144.469 477.871 143.551 476.66 143.551 474.766C143.551 472.891 144.469 471.65 145.865 471.65C147.291 471.65 148.189 472.871 148.189 474.766C148.189 476.67 147.291 477.871 145.865 477.871ZM153.346 467.119V469.531H151.871V471.68H153.346V477.178C153.346 479.219 154.303 480.039 156.764 480.039C157.34 480.039 157.828 479.99 158.121 479.922V477.822C157.945 477.852 157.682 477.871 157.428 477.871C156.588 477.871 156.197 477.49 156.197 476.689V471.68H158.131V469.531H156.197V467.119H153.346ZM164.342 480.225C167.506 480.225 169.527 478.203 169.527 474.756C169.527 471.357 167.477 469.307 164.342 469.307C161.207 469.307 159.156 471.367 159.156 474.756C159.156 478.193 161.178 480.225 164.342 480.225ZM164.342 478.047C162.936 478.047 162.047 476.865 162.047 474.766C162.047 472.686 162.955 471.484 164.342 471.484C165.729 471.484 166.627 472.686 166.627 474.766C166.627 476.865 165.738 478.047 164.342 478.047ZM171.002 480H173.854V473.682C173.854 472.51 174.586 471.689 175.67 471.689C176.725 471.689 177.359 472.354 177.359 473.477V480H180.104V473.643C180.104 472.48 180.816 471.689 181.9 471.689C183.004 471.689 183.609 472.354 183.609 473.564V480H186.461V472.852C186.461 470.742 185.084 469.336 183.033 469.336C181.5 469.336 180.25 470.166 179.781 471.484H179.723C179.371 470.117 178.316 469.336 176.803 469.336C175.377 469.336 174.254 470.166 173.814 471.426H173.756V469.531H171.002V480ZM198.707 480.234C202.164 480.234 204.576 478.252 204.908 475.107H202.037C201.725 476.777 200.465 477.803 198.717 477.803C196.461 477.803 195.045 475.947 195.045 472.939C195.045 469.971 196.48 468.105 198.707 468.105C200.426 468.105 201.754 469.238 202.027 470.967H204.898C204.674 467.812 202.096 465.664 198.707 465.664C194.625 465.664 192.037 468.408 192.037 472.949C192.037 477.5 194.605 480.234 198.707 480.234ZM206.559 480H209.41V474.023C209.41 472.646 210.201 471.699 211.549 471.699C212.848 471.699 213.512 472.52 213.512 473.867V480H216.363V473.262C216.363 470.84 215.035 469.336 212.711 469.336C211.119 469.336 209.977 470.078 209.42 471.396H209.361V465.908H206.559V480ZM225.123 476.797C224.859 477.598 224.059 478.115 223.014 478.115C221.559 478.115 220.611 477.09 220.611 475.596V475.42H227.828V474.551C227.828 471.367 225.904 469.307 222.857 469.307C219.762 469.307 217.809 471.475 217.809 474.814C217.809 478.164 219.742 480.225 222.965 480.225C225.553 480.225 227.428 478.848 227.74 476.797H225.123ZM222.887 471.416C224.156 471.416 225.025 472.334 225.084 473.672H220.641C220.738 472.363 221.637 471.416 222.887 471.416ZM238.814 473.428C238.688 471.055 236.891 469.307 234.059 469.307C230.924 469.307 228.922 471.396 228.922 474.756C228.922 478.174 230.924 480.225 234.078 480.225C236.832 480.225 238.678 478.633 238.824 476.162H236.168C235.992 477.305 235.25 477.988 234.107 477.988C232.691 477.988 231.812 476.816 231.812 474.756C231.812 472.734 232.691 471.543 234.098 471.543C235.27 471.543 236.002 472.324 236.168 473.428H238.814ZM243.16 473.73H243.121V465.908H240.27V480H243.121V476.543L243.863 475.742L246.861 480H250.143L245.953 474.023L249.947 469.531H246.715L243.16 473.73ZM257.408 476.797C257.145 477.598 256.344 478.115 255.299 478.115C253.844 478.115 252.896 477.09 252.896 475.596V475.42H260.113V474.551C260.113 471.367 258.189 469.307 255.143 469.307C252.047 469.307 250.094 471.475 250.094 474.814C250.094 478.164 252.027 480.225 255.25 480.225C257.838 480.225 259.713 478.848 260.025 476.797H257.408ZM255.172 471.416C256.441 471.416 257.311 472.334 257.369 473.672H252.926C253.023 472.363 253.922 471.416 255.172 471.416ZM261.588 480H264.439V474.15C264.439 472.676 265.26 471.816 266.666 471.816C267.076 471.816 267.467 471.885 267.701 471.982V469.473C267.506 469.414 267.223 469.365 266.891 469.365C265.66 469.365 264.771 470.088 264.4 471.416H264.342V469.531H261.588V480Z" fill="white"/>
<g clip-path="url(#clip1)">
<path fill-rule="evenodd" clip-rule="evenodd" d="M201.105 394.867H169.164L165.67 420.457L169.164 442.026H201.105C202.232 442.026 203.154 441.104 203.154 439.981C203.154 427.97 203.154 425.595 203.154 396.912C203.154 395.786 202.232 394.867 201.105 394.867V394.867Z" fill="#E6E6E6"/>
<path fill-rule="evenodd" clip-rule="evenodd" d="M162.907 396.912V400.187L162.386 400.994L162.907 401.831V410.324L162.427 411.143L162.907 411.972V420.457L162.577 421.26L162.907 422.097V430.359L162.332 431.234L162.907 432.006V439.981C162.907 441.104 163.828 442.026 164.955 442.026H169.164V394.867H164.955C163.827 394.867 162.907 395.786 162.907 396.912Z" fill="#64B0D9"/>
<path fill-rule="evenodd" clip-rule="evenodd" d="M197.396 426.279L196.547 431.414C196.479 431.845 196.605 432.215 196.846 432.465C197.217 432.851 197.854 432.937 198.434 432.471L202.399 429.082L201.135 425.129L197.396 426.279Z" fill="#FCC368"/>
<path fill-rule="evenodd" clip-rule="evenodd" d="M199.399 396.912V422.721L203.153 416.051V396.912C203.153 395.786 202.232 394.867 201.104 394.867H197.35C198.478 394.867 199.399 395.786 199.399 396.912Z" fill="#C2C7CC"/>
<path fill-rule="evenodd" clip-rule="evenodd" d="M202.399 429.083L199.399 431.648V439.981C199.399 441.103 198.478 442.025 197.35 442.025H201.104C202.232 442.025 203.153 441.103 203.153 439.981V427.741L202.399 429.083Z" fill="#C2C7CC"/>
<path d="M166.196 405.088C166.196 405.542 165.827 405.911 165.373 405.911H162.907C161.767 405.911 160.792 405.628 160.089 405.093C159.397 404.566 159 403.809 159 403.015C159 401.61 160.262 400.188 162.675 400.188H162.907V401.831C162.907 401.831 162.755 401.833 162.675 401.833C161.345 401.833 160.648 402.428 160.648 403.015C160.648 403.295 160.804 403.567 161.088 403.783C161.376 404.003 161.926 404.264 162.907 404.264H165.372C165.827 404.264 166.196 404.632 166.196 405.088Z" fill="#808080"/>
<path d="M166.196 415.224C166.196 415.678 165.827 416.048 165.373 416.048H162.907C161.767 416.048 160.792 415.764 160.089 415.229C159.397 414.704 159 413.945 159 413.153C159 411.746 160.262 410.324 162.675 410.324H162.907V411.971C162.907 411.971 162.755 411.971 162.675 411.971C161.345 411.971 160.648 412.566 160.648 413.153C160.648 413.431 160.804 413.704 161.088 413.919C161.376 414.139 161.926 414.401 162.907 414.401H165.372C165.827 414.401 166.196 414.77 166.196 415.224Z" fill="#808080"/>
<path d="M166.196 425.358C166.196 425.812 165.827 426.18 165.373 426.18H162.907C161.767 426.18 160.792 425.898 160.089 425.363C159.397 424.836 159 424.079 159 423.285C159 421.881 160.262 420.457 162.675 420.457H162.907V422.098C162.907 422.098 162.755 422.104 162.675 422.104C161.345 422.104 160.648 422.698 160.648 423.285C160.648 423.565 160.804 423.838 161.088 424.053C161.376 424.272 161.926 424.535 162.907 424.535H165.372C165.827 424.535 166.196 424.903 166.196 425.358Z" fill="#808080"/>
<path d="M166.431 435.26C166.431 435.715 166.063 436.083 165.607 436.083H163.139C163.061 436.083 162.983 436.081 162.907 436.078C161.866 436.042 160.976 435.764 160.321 435.265C159.63 434.738 159.233 433.981 159.233 433.188C159.233 431.781 160.495 430.359 162.907 430.359V432.006C161.577 432.006 160.882 432.601 160.882 433.188C160.882 433.466 161.037 433.74 161.321 433.955C161.585 434.156 162.071 434.394 162.907 434.431C162.981 434.435 163.058 434.437 163.139 434.437H165.607C166.063 434.437 166.431 434.805 166.431 435.26Z" fill="#808080"/>
<path d="M197.805 404.785H175.09C174.635 404.785 174.267 404.416 174.267 403.962C174.267 403.507 174.635 403.138 175.09 403.138H197.805C198.26 403.138 198.629 403.507 198.629 403.962C198.629 404.417 198.26 404.785 197.805 404.785Z" fill="#808080"/>
<path d="M197.805 411.912H175.09C174.635 411.912 174.267 411.543 174.267 411.088C174.267 410.634 174.635 410.266 175.09 410.266H197.805C198.26 410.266 198.629 410.634 198.629 411.088C198.629 411.543 198.26 411.912 197.805 411.912Z" fill="#808080"/>
<path d="M197.805 419.039H175.09C174.635 419.039 174.267 418.67 174.267 418.215C174.267 417.761 174.635 417.392 175.09 417.392H197.805C198.26 417.392 198.629 417.761 198.629 418.215C198.629 418.67 198.26 419.039 197.805 419.039Z" fill="#808080"/>
<path d="M193.194 426.162H175.09C174.635 426.162 174.267 425.794 174.267 425.339C174.267 424.884 174.635 424.516 175.09 424.516H193.194C193.65 424.516 194.018 424.884 194.018 425.339C194.018 425.794 193.65 426.162 193.194 426.162Z" fill="#808080"/>
<path fill-rule="evenodd" clip-rule="evenodd" d="M166.38 394.867H169.164V442.026H166.38V394.867Z" fill="#4A83C9"/>
<path fill-rule="evenodd" clip-rule="evenodd" d="M212.541 405.223C211.165 404.452 209.407 404.945 208.635 406.318L208.109 407.246L209.132 411.067L213.112 410.052L213.634 409.124C214.401 407.764 213.928 406.003 212.541 405.223Z" fill="#64B0D9"/>
<path fill-rule="evenodd" clip-rule="evenodd" d="M208.109 407.246L203.153 416.05L197.396 426.279L202.399 429.083L203.153 427.741L213.112 410.055V410.052L208.109 407.246Z" fill="#F78411"/>
<path fill-rule="evenodd" clip-rule="evenodd" d="M200.693 428.126L202.399 429.083L203.153 427.741L213.112 410.055V410.052L211.406 409.096V409.099L200.693 428.126Z" fill="#F74311"/>
<path fill-rule="evenodd" clip-rule="evenodd" d="M211.101 404.859C212.398 405.365 212.445 407.255 211.932 408.168L211.406 409.096L213.112 410.052L213.635 409.123C214.401 407.763 213.928 406.003 212.541 405.223C212.086 404.97 211.589 404.853 211.101 404.859Z" fill="#4A83C9"/>
<path d="M197.079 433.289H175.09C174.635 433.289 174.267 432.92 174.267 432.466C174.267 432.011 174.635 431.643 175.09 431.643H197.079C197.534 431.643 197.902 432.011 197.902 432.466C197.902 432.92 197.534 433.289 197.079 433.289Z" fill="#808080"/>
<path fill-rule="evenodd" clip-rule="evenodd" d="M200.693 428.126L196.729 431.519C196.664 431.572 196.596 431.618 196.528 431.655C196.531 431.984 196.652 432.265 196.846 432.466C197.217 432.851 197.854 432.937 198.435 432.472L199.399 431.648L202.399 429.083L200.693 428.126Z" fill="#EDA93B"/>
</g>
</g>
<g clip-path="url(#clip2)">
<circle cx="318.5" cy="677.5" r="27.5" fill="#BE2020" fill-opacity="0.83"/>
<path d="M310.847 688L317.951 666.862H313.132L308.298 683.444H308.195L303.361 666.862H298.41L305.515 688H310.847ZM331.677 688H336.379L329.025 666.862H323.825L316.486 688H321.027L322.639 682.873H330.065L331.677 688ZM326.301 670.905H326.403L329.113 679.562H323.591L326.301 670.905ZM304.05 724.249C306.013 724.249 307.961 723.268 308.84 721.598H308.928V724H313.059V713.204C313.059 710.04 310.437 707.96 306.408 707.96C302.248 707.96 299.655 710.055 299.494 713.102H303.405C303.61 711.944 304.621 711.153 306.218 711.153C307.829 711.153 308.854 712.003 308.854 713.468V714.508L304.899 714.742C300.988 714.977 298.791 716.632 298.791 719.488C298.791 722.315 301.062 724.249 304.05 724.249ZM305.456 721.158C304.006 721.158 303.039 720.426 303.039 719.254C303.039 718.141 303.947 717.423 305.544 717.306L308.854 717.101V718.243C308.854 719.942 307.316 721.158 305.456 721.158Z" fill="white" fill-opacity="0.65"/>
</g>
<path d="M42.3613 191.182V188.926H33.5723V191.812H38.6699L38.6553 192.163C38.5967 195.122 36.3848 197.144 33.1914 197.144C29.3828 197.144 27.0098 194.17 27.0098 189.307C27.0098 184.546 29.2803 181.719 33.0889 181.719C35.6816 181.719 37.6445 183.154 38.3623 185.586H42.2002C41.5117 181.353 37.8789 178.511 33.0742 178.511C26.9658 178.511 23.1426 182.642 23.1426 189.351C23.1426 196.162 26.9805 200.352 33.1475 200.352C38.9336 200.352 42.3613 196.909 42.3613 191.182ZM53.1561 200.308C57.7117 200.308 60.6707 197.275 60.6707 192.236C60.6707 187.212 57.6824 184.15 53.1561 184.15C48.6297 184.15 45.6414 187.227 45.6414 192.236C45.6414 197.275 48.6004 200.308 53.1561 200.308ZM53.1561 197.422C50.8416 197.422 49.3475 195.547 49.3475 192.236C49.3475 188.94 50.8563 187.051 53.1561 187.051C55.4705 187.051 56.9646 188.94 56.9646 192.236C56.9646 195.547 55.4705 197.422 53.1561 197.422ZM71.0846 200.308C75.6402 200.308 78.5992 197.275 78.5992 192.236C78.5992 187.212 75.6109 184.15 71.0846 184.15C66.5582 184.15 63.5699 187.227 63.5699 192.236C63.5699 197.275 66.5289 200.308 71.0846 200.308ZM71.0846 197.422C68.7701 197.422 67.276 195.547 67.276 192.236C67.276 188.94 68.7848 187.051 71.0846 187.051C73.399 187.051 74.8932 188.94 74.8932 192.236C74.8932 195.547 73.399 197.422 71.0846 197.422ZM87.9437 200.249C90.2143 200.249 92.0014 199.092 92.851 197.349H92.9096V200H96.4838V178.862H92.8363V187.08H92.7484C91.9281 185.366 90.1703 184.209 87.9437 184.209C84.0326 184.209 81.4984 187.314 81.4984 192.222C81.4984 197.158 84.0326 200.249 87.9437 200.249ZM89.0424 187.212C91.3422 187.212 92.851 189.189 92.851 192.236C92.851 195.312 91.3422 197.261 89.0424 197.261C86.684 197.261 85.2338 195.327 85.2338 192.236C85.2338 189.16 86.6986 187.212 89.0424 187.212ZM122.131 200H126.115L118.615 178.862H114.353L106.853 200H110.749L112.551 194.536H120.329L122.131 200ZM116.389 182.598H116.491L119.436 191.621H113.43L116.389 182.598ZM130.025 200H133.673V187.285H136.72V184.517H133.614V183.242C133.614 181.982 134.244 181.323 135.636 181.323C136.06 181.323 136.485 181.367 136.793 181.411V178.862C136.339 178.774 135.548 178.701 134.83 178.701C131.461 178.701 130.025 180.122 130.025 183.14V184.517H127.901V187.285H130.025V200ZM141.333 180.84V184.473H139.106V187.285H141.333V195.869C141.333 198.887 142.651 200.073 146.005 200.073C146.782 200.073 147.5 200.015 147.895 199.927V197.144C147.661 197.188 147.192 197.217 146.855 197.217C145.566 197.217 144.98 196.631 144.98 195.356V187.285H147.91V184.473H144.98V180.84H141.333ZM161.59 195.356C161.195 196.646 159.906 197.495 158.206 197.495C155.819 197.495 154.295 195.825 154.295 193.335V193.115H165.15V191.929C165.15 187.212 162.396 184.15 157.987 184.15C153.504 184.15 150.662 187.388 150.662 192.295C150.662 197.246 153.475 200.308 158.133 200.308C161.81 200.308 164.535 198.286 165.003 195.356H161.59ZM158.001 186.978C160.096 186.978 161.502 188.516 161.576 190.713H154.325C154.471 188.545 155.951 186.978 158.001 186.978ZM168.708 200H172.356V190.962C172.356 188.779 173.601 187.446 175.666 187.446C176.281 187.446 176.838 187.534 177.146 187.651V184.355C176.882 184.297 176.472 184.209 176.003 184.209C174.172 184.209 172.81 185.293 172.282 187.183H172.209V184.473H168.708V200ZM180.221 200H183.868V191.006C183.868 188.779 185.201 187.271 187.296 187.271C189.376 187.271 190.401 188.501 190.401 190.698V200H194.049V189.966C194.049 186.377 192.101 184.18 188.673 184.18C186.285 184.18 184.63 185.293 183.795 187.139H183.722V184.473H180.221V200ZM205.049 200.308C209.604 200.308 212.563 197.275 212.563 192.236C212.563 187.212 209.575 184.15 205.049 184.15C200.522 184.15 197.534 187.227 197.534 192.236C197.534 197.275 200.493 200.308 205.049 200.308ZM205.049 197.422C202.734 197.422 201.24 195.547 201.24 192.236C201.24 188.94 202.749 187.051 205.049 187.051C207.363 187.051 208.857 188.94 208.857 192.236C208.857 195.547 207.363 197.422 205.049 197.422ZM222.977 200.308C227.533 200.308 230.492 197.275 230.492 192.236C230.492 187.212 227.504 184.15 222.977 184.15C218.451 184.15 215.462 187.227 215.462 192.236C215.462 197.275 218.421 200.308 222.977 200.308ZM222.977 197.422C220.663 197.422 219.169 195.547 219.169 192.236C219.169 188.94 220.677 187.051 222.977 187.051C225.292 187.051 226.786 188.94 226.786 192.236C226.786 195.547 225.292 197.422 222.977 197.422ZM234.036 200H237.683V191.006C237.683 188.779 239.016 187.271 241.111 187.271C243.191 187.271 244.216 188.501 244.216 190.698V200H247.864V189.966C247.864 186.377 245.915 184.18 242.488 184.18C240.1 184.18 238.445 185.293 237.61 187.139H237.537V184.473H234.036V200ZM258.218 194.229C258.218 197.979 260.913 200.454 264.941 200.454C269.233 200.454 271.782 197.964 271.782 193.657V178.862H268.018V193.628C268.018 195.913 266.919 197.144 264.897 197.144C263.14 197.144 261.938 195.972 261.895 194.229H258.218ZM281.024 200.249C283.016 200.249 284.965 199.209 285.858 197.524H285.931V200H289.447V189.307C289.447 186.187 286.942 184.15 283.09 184.15C279.135 184.15 276.659 186.23 276.498 189.131H279.882C280.116 187.842 281.215 187.007 282.943 187.007C284.745 187.007 285.844 187.944 285.844 189.57V190.684L281.742 190.918C277.963 191.152 275.839 192.808 275.839 195.562C275.839 198.359 278.021 200.249 281.024 200.249ZM282.123 197.495C280.541 197.495 279.486 196.689 279.486 195.415C279.486 194.185 280.497 193.394 282.255 193.276L285.844 193.057V194.243C285.844 196.118 284.188 197.495 282.123 197.495ZM293.591 200H297.239V191.006C297.239 188.779 298.572 187.271 300.667 187.271C302.747 187.271 303.772 188.501 303.772 190.698V200H307.42V189.966C307.42 186.377 305.471 184.18 302.044 184.18C299.656 184.18 298.001 185.293 297.166 187.139H297.092V184.473H293.591V200ZM321.832 195.356C321.437 196.646 320.148 197.495 318.449 197.495C316.061 197.495 314.538 195.825 314.538 193.335V193.115H325.392V191.929C325.392 187.212 322.638 184.15 318.229 184.15C313.746 184.15 310.905 187.388 310.905 192.295C310.905 197.246 313.717 200.308 318.375 200.308C322.052 200.308 324.777 198.286 325.246 195.356H321.832ZM318.244 186.978C320.338 186.978 321.745 188.516 321.818 190.713H314.567C314.713 188.545 316.193 186.978 318.244 186.978ZM331.572 204.468L333.55 196.514H329.99L328.775 204.468H331.572Z" fill="black"/>
<path d="M35.6914 235V221.008H40.7656V218.09H27.0781V221.008H32.1523V235H35.6914ZM46.0986 235.27C50.0712 235.27 52.4619 232.762 52.4619 228.543C52.4619 224.359 50.0361 221.816 46.0986 221.816C42.1611 221.816 39.7353 224.371 39.7353 228.543C39.7353 232.75 42.1259 235.27 46.0986 235.27ZM46.0986 232.574C44.2705 232.574 43.2392 231.098 43.2392 228.543C43.2392 226.012 44.2822 224.523 46.0986 224.523C47.9033 224.523 48.958 226.012 48.958 228.543C48.958 231.098 47.915 232.574 46.0986 232.574ZM58.9198 235.199C60.7128 235.199 62.1777 234.367 62.8691 232.973H63.08V235H66.3847V217.164H62.9745V224.16H62.7753C62.1073 222.73 60.6659 221.887 58.9198 221.887C55.6737 221.887 53.6581 224.43 53.6581 228.531C53.6581 232.645 55.662 235.199 58.9198 235.199ZM60.08 224.652C61.8964 224.652 63.0097 226.141 63.0097 228.555C63.0097 230.969 61.9081 232.445 60.08 232.445C58.2519 232.445 57.162 230.98 57.162 228.543C57.162 226.117 58.2636 224.652 60.08 224.652ZM72.5028 235.199C74.1786 235.199 75.5848 234.484 76.2528 233.289H76.4637V235H79.7684V226.188C79.7684 223.434 77.8348 221.816 74.413 221.816C71.1669 221.816 68.9755 223.305 68.7528 225.672H71.8934C72.1747 224.863 72.995 224.43 74.2255 224.43C75.6317 224.43 76.4052 225.074 76.4052 226.188V227.254L73.2762 227.441C70.0653 227.629 68.2723 228.988 68.2723 231.32C68.2723 233.676 70.0184 235.199 72.5028 235.199ZM73.6278 232.703C72.4442 232.703 71.6122 232.105 71.6122 231.109C71.6122 230.16 72.327 229.609 73.7919 229.516L76.4052 229.34V230.301C76.4052 231.66 75.2098 232.703 73.6278 232.703ZM83.4139 239.688C86.6366 239.688 88.2186 238.539 89.3202 235.246L93.7733 222.098H90.1639L87.4452 231.941H87.2342L84.5155 222.098H80.7537L85.2889 235.07L85.1717 235.562C84.8905 236.605 84.1639 237.027 82.8866 237.027C82.7459 237.027 82.2303 237.016 82.1131 236.992V239.652C82.2537 239.676 83.285 239.688 83.4139 239.688ZM102.154 220.117C103.209 220.117 104.076 219.273 104.076 218.219C104.076 217.152 103.209 216.309 102.154 216.309C101.099 216.309 100.22 217.152 100.22 218.219C100.22 219.273 101.099 220.117 102.154 220.117ZM100.443 235H103.853V222.098H100.443V235ZM106.057 225.859C106.057 227.84 107.276 229.023 109.784 229.574L112.128 230.102C113.264 230.359 113.757 230.758 113.757 231.414C113.757 232.27 112.842 232.855 111.518 232.855C110.159 232.855 109.327 232.328 109.069 231.438H105.741C105.975 233.875 108.038 235.27 111.448 235.27C114.835 235.27 117.143 233.605 117.143 231.051C117.143 229.129 116.018 228.074 113.51 227.523L111.085 226.996C109.889 226.727 109.339 226.316 109.339 225.66C109.339 224.816 110.241 224.242 111.46 224.242C112.725 224.242 113.51 224.77 113.686 225.625H116.839C116.651 223.188 114.717 221.816 111.436 221.816C108.214 221.816 106.057 223.445 106.057 225.859ZM128.09 235V228.344H134.969V225.543H128.09V221.008H135.626V218.09H124.551V235H128.09ZM137.595 235H141.005V227.781C141.005 225.965 142.283 224.852 144.146 224.852C144.697 224.852 145.494 224.945 145.763 225.039V222.039C145.47 221.945 144.896 221.887 144.427 221.887C142.787 221.887 141.451 222.859 141.111 224.148H140.9V222.098H137.595V235ZM148.823 220.117C149.878 220.117 150.745 219.273 150.745 218.219C150.745 217.152 149.878 216.309 148.823 216.309C147.768 216.309 146.889 217.152 146.889 218.219C146.889 219.273 147.768 220.117 148.823 220.117ZM147.112 235H150.522V222.098H147.112V235ZM157.648 235.199C159.441 235.199 160.906 234.367 161.597 232.973H161.808V235H165.113V217.164H161.703V224.16H161.503C160.835 222.73 159.394 221.887 157.648 221.887C154.402 221.887 152.386 224.43 152.386 228.531C152.386 232.645 154.39 235.199 157.648 235.199ZM158.808 224.652C160.625 224.652 161.738 226.141 161.738 228.555C161.738 230.969 160.636 232.445 158.808 232.445C156.98 232.445 155.89 230.98 155.89 228.543C155.89 226.117 156.992 224.652 158.808 224.652ZM171.231 235.199C172.907 235.199 174.313 234.484 174.981 233.289H175.192V235H178.497V226.188C178.497 223.434 176.563 221.816 173.141 221.816C169.895 221.816 167.704 223.305 167.481 225.672H170.622C170.903 224.863 171.723 224.43 172.954 224.43C174.36 224.43 175.133 225.074 175.133 226.188V227.254L172.004 227.441C168.793 227.629 167 228.988 167 231.32C167 233.676 168.747 235.199 171.231 235.199ZM172.356 232.703C171.172 232.703 170.34 232.105 170.34 231.109C170.34 230.16 171.055 229.609 172.52 229.516L175.133 229.34V230.301C175.133 231.66 173.938 232.703 172.356 232.703ZM182.142 239.688C185.365 239.688 186.947 238.539 188.048 235.246L192.501 222.098H188.892L186.173 231.941H185.962L183.244 222.098H179.482L184.017 235.07L183.9 235.562C183.619 236.605 182.892 237.027 181.615 237.027C181.474 237.027 180.958 237.016 180.841 236.992V239.652C180.982 239.676 182.013 239.688 182.142 239.688ZM194.506 239.547L196.639 232.293H193.299L192.221 239.547H194.506ZM216.094 235H219.926L214.055 218.09H209.895L204.024 235H207.575L208.875 230.898H214.817L216.094 235ZM211.758 221.523H211.969L214.067 228.25H209.637L211.758 221.523ZM228.974 221.887C227.193 221.887 225.728 222.766 225.025 224.219H224.814V222.098H221.509V239.277H224.919V233.031H225.13C225.763 234.391 227.181 235.199 229.033 235.199C232.267 235.199 234.247 232.691 234.247 228.543C234.247 224.383 232.243 221.887 228.974 221.887ZM227.814 232.445C226.009 232.445 224.884 230.969 224.884 228.555C224.884 226.141 226.009 224.652 227.825 224.652C229.642 224.652 230.743 226.117 230.743 228.543C230.743 230.98 229.654 232.445 227.814 232.445ZM236.065 235H239.475V227.781C239.475 225.965 240.752 224.852 242.615 224.852C243.166 224.852 243.963 224.945 244.233 225.039V222.039C243.94 221.945 243.365 221.887 242.897 221.887C241.256 221.887 239.92 222.859 239.58 224.148H239.369V222.098H236.065V235ZM247.292 220.117C248.347 220.117 249.214 219.273 249.214 218.219C249.214 217.152 248.347 216.309 247.292 216.309C246.238 216.309 245.359 217.152 245.359 218.219C245.359 219.273 246.238 220.117 247.292 220.117ZM245.581 235H248.991V222.098H245.581V235ZM251.606 235H255.016V217.164H251.606V235ZM266.924 235H270.463V218.09H266.936L262.565 221.125V224.312L266.713 221.43H266.924V235ZM274.952 235H278.655L285.722 220.938V218.078H273.628V220.902H282.159V221.102L274.952 235ZM288.746 219.016V222.215H286.73V224.805H288.746V231.52C288.746 234.027 289.988 235.047 293.129 235.047C293.785 235.047 294.418 234.977 294.84 234.895V232.375C294.512 232.41 294.277 232.434 293.832 232.434C292.672 232.434 292.156 231.895 292.156 230.734V224.805H294.84V222.215H292.156V219.016H288.746ZM296.845 235H300.255V227.57C300.255 225.859 301.239 224.699 302.95 224.699C304.497 224.699 305.329 225.637 305.329 227.465V235H308.739V226.691C308.739 223.598 307.087 221.852 304.31 221.852C302.411 221.852 301.005 222.742 300.407 224.207H300.196V217.164H296.845V235Z" fill="#828282"/>
<path d="M30.5 65.4999H48.5V63.1666H30.5V65.4999ZM30.5 70.1666H48.5V67.8333H30.5V70.1666ZM30.5 60.8333H48.5V58.4999H30.5V60.8333ZM30.5 53.8333V56.1666H48.5V53.8333H30.5Z" fill="black"/>
<path d="M134.141 91V69.8623H129.014L123.008 85.0381H122.891L116.885 69.8623H111.758V91H115.698V76.7324H115.815L121.558 91H124.341L130.083 76.7324H130.2V91H134.141ZM139.312 96.8154C143.311 96.8154 145.288 95.3652 146.621 91.3369L152.026 75.2969H147.515L144.189 87.5723H144.102L140.762 75.2969H136.074L141.538 91C141.553 91.0732 141.392 91.6885 141.392 91.7617C141.099 93.0068 140.322 93.5049 138.77 93.5049C138.608 93.5049 137.832 93.4902 137.686 93.4609V96.7715C137.832 96.8008 139.15 96.8154 139.312 96.8154ZM153.169 84.9648C153.301 88.9492 156.655 91.3516 161.694 91.3516C166.982 91.3516 170.22 88.7441 170.22 84.6133C170.22 81.4053 168.271 79.6035 163.804 78.71L161.562 78.2559C159.072 77.7578 158.047 76.9521 158.047 75.6484C158.047 74.0957 159.512 73.0703 161.694 73.0703C163.921 73.0703 165.488 74.1543 165.635 75.9561H169.81C169.736 72.0742 166.631 69.4961 161.694 69.4961C156.992 69.4961 153.623 72.0596 153.623 75.9268C153.623 79.0762 155.688 81.0977 159.907 81.9326L162.134 82.3721C164.785 82.9141 165.781 83.7051 165.781 85.0967C165.781 86.6494 164.17 87.792 161.812 87.792C159.409 87.792 157.622 86.7373 157.344 84.9648H153.169ZM182.964 86.1953C182.568 87.3965 181.367 88.1729 179.8 88.1729C177.617 88.1729 176.196 86.6348 176.196 84.3936V84.1299H187.021V82.8262C187.021 78.0508 184.136 74.96 179.565 74.96C174.922 74.96 171.992 78.2119 171.992 83.2217C171.992 88.2461 174.893 91.3369 179.727 91.3369C183.608 91.3369 186.421 89.2715 186.89 86.1953H182.964ZM179.609 78.124C181.514 78.124 182.817 79.501 182.905 81.5078H176.24C176.387 79.5449 177.734 78.124 179.609 78.124ZM189.233 91H193.511V81.9912C193.511 79.9551 194.727 78.5488 196.646 78.5488C198.564 78.5488 199.531 79.7207 199.531 81.7715V91H203.809V80.8779C203.809 77.2012 201.846 75.0039 198.359 75.0039C195.942 75.0039 194.287 76.1465 193.452 78.0947H193.364V75.2969H189.233V91ZM206.255 79.9111C206.255 82.2695 207.793 83.793 210.825 84.4375L213.506 84.9941C215.044 85.3457 215.586 85.8145 215.586 86.6494C215.586 87.6748 214.59 88.334 212.979 88.334C211.279 88.334 210.298 87.6016 210.034 86.2246H205.859C206.138 89.3154 208.643 91.3369 212.979 91.3369C217.021 91.3369 219.849 89.3008 219.849 86.21C219.849 83.9102 218.501 82.6211 215.22 81.9326L212.539 81.3613C210.957 81.0244 210.371 80.4824 210.371 79.6768C210.371 78.6367 211.353 77.9629 212.832 77.9629C214.414 77.9629 215.366 78.8271 215.498 80.1016H219.438C219.351 77.0254 216.86 74.96 212.832 74.96C208.833 74.96 206.255 76.9229 206.255 79.9111Z" fill="black"/>
<path d="M236.167 91H240.869L233.516 69.8623H228.315L220.977 91H225.518L227.129 85.873H234.556L236.167 91ZM230.791 73.9053H230.894L233.604 82.5625H228.081L230.791 73.9053ZM247.461 83.2656H251.006L254.946 91H259.956L255.503 82.6064C257.935 81.6543 259.341 79.3105 259.341 76.6006C259.341 72.4258 256.558 69.8623 251.694 69.8623H243.037V91H247.461V83.2656ZM247.461 73.3193H251.226C253.423 73.3193 254.8 74.6377 254.8 76.6885C254.8 78.7832 253.496 80.0576 251.27 80.0576H247.461V73.3193Z" fill="#F90F0F"/>
<path d="M25.8476 31H27.4882V20.4312H25.8549L23.0717 22.4087V24.02L25.723 22.123H25.8476V31ZM30.2365 23.4927H31.7892C31.7892 22.3208 32.5729 21.5298 33.7667 21.5298C34.9386 21.5298 35.6344 22.3135 35.6344 23.3389C35.6344 24.1958 35.2829 24.7231 33.9425 26.1221L30.3244 29.8867V31H37.4435V29.6011H32.5656V29.4766L34.8947 27.1328C36.7477 25.2725 37.2824 24.4009 37.2824 23.1777C37.2824 21.4419 35.8541 20.1748 33.8693 20.1748C31.7379 20.1748 30.2365 21.5518 30.2365 23.4927ZM40.58 24.02C41.2025 24.02 41.6566 23.5513 41.6566 22.9653C41.6566 22.3647 41.2025 21.9033 40.58 21.9033C39.9647 21.9033 39.5033 22.3647 39.5033 22.9653C39.5033 23.5513 39.9647 24.02 40.58 24.02ZM40.58 29.5205C41.2025 29.5205 41.6566 29.0518 41.6566 28.4585C41.6566 27.8652 41.2025 27.4038 40.58 27.4038C39.9647 27.4038 39.5033 27.8652 39.5033 28.4585C39.5033 29.0518 39.9647 29.5205 40.58 29.5205ZM43.819 23.4927H45.3717C45.3717 22.3208 46.1554 21.5298 47.3492 21.5298C48.5211 21.5298 49.2169 22.3135 49.2169 23.3389C49.2169 24.1958 48.8654 24.7231 47.525 26.1221L43.9069 29.8867V31H51.026V29.6011H46.1481V29.4766L48.4772 27.1328C50.3302 25.2725 50.8649 24.4009 50.8649 23.1777C50.8649 21.4419 49.4366 20.1748 47.4518 20.1748C45.3204 20.1748 43.819 21.5518 43.819 23.4927ZM52.8514 23.4927H54.4042C54.4042 22.3208 55.1879 21.5298 56.3817 21.5298C57.5536 21.5298 58.2494 22.3135 58.2494 23.3389C58.2494 24.1958 57.8978 24.7231 56.5575 26.1221L52.9393 29.8867V31H60.0585V29.6011H55.1805V29.4766L57.5096 27.1328C59.3627 25.2725 59.8973 24.4009 59.8973 23.1777C59.8973 21.4419 58.4691 20.1748 56.4842 20.1748C54.3529 20.1748 52.8514 21.5518 52.8514 23.4927Z" fill="black"/>
<path opacity="0.35" fill-rule="evenodd" clip-rule="evenodd" d="M338.5 20.5H357.5C358.881 20.5 360 21.6193 360 23V29.5C360 30.8807 358.881 32 357.5 32H338.5C337.119 32 336 30.8807 336 29.5V23C336 21.6193 337.119 20.5 338.5 20.5ZM338.5 21.5C337.672 21.5 337 22.1716 337 23V29.5C337 30.3284 337.672 31 338.5 31H357.5C358.328 31 359 30.3284 359 29.5V23C359 22.1716 358.328 21.5 357.5 21.5H338.5Z" fill="black"/>
<path opacity="0.4" fill-rule="evenodd" clip-rule="evenodd" d="M361 23.7998C361.89 24.255 362.5 25.1813 362.5 26.2499C362.5 27.3186 361.89 28.2449 361 28.7001V23.7998Z" fill="black"/>
<path fill-rule="evenodd" clip-rule="evenodd" d="M339 22.5H357C357.552 22.5 358 22.9477 358 23.5V29C358 29.5523 357.552 30 357 30H339C338.448 30 338 29.5523 338 29V23.5C338 22.9477 338.448 22.5 339 22.5Z" fill="black"/>
<path fill-rule="evenodd" clip-rule="evenodd" d="M329.983 23.5229C328.072 21.8906 325.657 21 323.133 21C320.601 21 318.18 21.8959 316.266 23.5371L316.104 23.6765C315.972 23.7892 315.965 23.9895 316.087 24.1118L317.214 25.2356C317.324 25.3447 317.498 25.3521 317.617 25.2527L317.756 25.1354C319.263 23.8694 321.155 23.1804 323.133 23.1804C325.104 23.1804 326.989 23.8647 328.494 25.1228L328.634 25.2395C328.752 25.3385 328.926 25.3308 329.036 25.2219L330.163 24.098C330.285 23.9756 330.278 23.7749 330.146 23.6623L329.983 23.5229ZM323.133 24.4698C324.724 24.4698 326.251 24.9975 327.495 25.9749L327.671 26.113C327.811 26.2231 327.824 26.4306 327.697 26.5564L326.567 27.6841C326.462 27.7884 326.297 27.8003 326.178 27.7122L326.04 27.6098C325.2 26.9852 324.186 26.6501 323.133 26.6501C322.073 26.6501 321.053 26.9893 320.21 27.6211L320.072 27.7245C319.954 27.8133 319.787 27.8016 319.683 27.697L318.552 26.5698C318.426 26.4442 318.438 26.2373 318.578 26.1269L318.753 25.9887C320 25.0027 321.534 24.4698 323.133 24.4698ZM323.133 27.9396C323.772 27.9396 324.394 28.1076 324.941 28.4281L325.163 28.5579C325.331 28.6563 325.361 28.8867 325.223 29.0242L323.329 30.913C323.212 31.029 323.024 31.029 322.907 30.913L321.026 29.0363C320.888 28.8994 320.917 28.6702 321.084 28.5711L321.303 28.4406C321.856 28.1121 322.485 27.9396 323.133 27.9396Z" fill="black"/>
<path opacity="0.25" fill-rule="evenodd" clip-rule="evenodd" d="M309.5 21H310.5C311.052 21 311.5 21.4477 311.5 22V30C311.5 30.5523 311.052 31 310.5 31H309.5C308.948 31 308.5 30.5523 308.5 30V22C308.5 21.4477 308.948 21 309.5 21Z" fill="black"/>
<path fill-rule="evenodd" clip-rule="evenodd" d="M306 23H305C304.448 23 304 23.4477 304 24V30C304 30.5523 304.448 31 305 31H306C306.552 31 307 30.5523 307 30V24C307 23.4477 306.552 23 306 23ZM300.5 25H301.5C302.052 25 302.5 25.4477 302.5 26V30C302.5 30.5523 302.052 31 301.5 31H300.5C299.948 31 299.5 30.5523 299.5 30V26C299.5 25.4477 299.948 25 300.5 25ZM296 26.5H297C297.552 26.5 298 26.9477 298 27.5V30C298 30.5523 297.552 31 297 31H296C295.448 31 295 30.5523 295 30V27.5C295 26.9477 295.448 26.5 296 26.5Z" fill="black"/>
<path fill-rule="evenodd" clip-rule="evenodd" d="M70.6782 31.7902L75.2404 21.25L64.7002 25.8122H70.6782V31.7902Z" fill="black"/>
</g>
<defs>
<filter id="filter0_d" x="47" y="369" width="278" height="161" filterUnits="userSpaceOnUse" color-interpolation-filters="sRGB">
<feFlood flood-opacity="0" result="BackgroundImageFix"/>
<feColorMatrix in="SourceAlpha" type="matrix" values="0 0 0 0 0 0 0 0 0 0 0 0 0 0 0 0 0 0 127 0"/>
<feOffset dy="4"/>
<feGaussianBlur stdDeviation="2"/>
<feColorMatrix type="matrix" values="0 0 0 0 0 0 0 0 0 0 0 0 0 0 0 0 0 0 0.25 0"/>
<feBlend mode="normal" in2="BackgroundImageFix" result="effect1_dropShadow"/>
<feBlend mode="normal" in="SourceGraphic" in2="effect1_dropShadow" result="shape"/>
</filter>
<clipPath id="clip0">
<rect width="375" height="812" fill="white"/>
</clipPath>
<clipPath id="clip1">
<rect width="55" height="55" fill="white" transform="translate(159 391)"/>
</clipPath>
<clipPath id="clip2">
<rect width="60" height="60" fill="white" transform="translate(291 650)"/>
</clipPath>
</defs>
</svg>
